<mxfile host="app.diagrams.net" agent="Mozilla/5.0 (X11; Linux x86_64) AppleWebKit/537.36 (KHTML, like Gecko) Chrome/129.0.0.0 Safari/537.36" version="24.8.6">
  <diagram name="Page-1" id="LSwMUB-P-J5mNTw7GYra">
    <mxGraphModel dx="1009" dy="537" grid="0" gridSize="10" guides="1" tooltips="1" connect="1" arrows="1" fold="1" page="1" pageScale="1" pageWidth="850" pageHeight="1100" math="0" shadow="0">
      <root>
        <mxCell id="0" />
        <mxCell id="1" parent="0" />
        <mxCell id="GHaV5jjTXmspHZCGRlZL-9" value="" style="group" parent="1" vertex="1" connectable="0">
          <mxGeometry x="80" y="427" width="690" height="81" as="geometry" />
        </mxCell>
        <mxCell id="GHaV5jjTXmspHZCGRlZL-1" value="" style="rounded=0;whiteSpace=wrap;html=1;fillColor=#fff2cc;strokeColor=#d6b656;" parent="GHaV5jjTXmspHZCGRlZL-9" vertex="1">
          <mxGeometry x="136" width="560" height="81" as="geometry" />
        </mxCell>
        <mxCell id="GHaV5jjTXmspHZCGRlZL-2" value="数据层" style="rounded=1;whiteSpace=wrap;html=1;fillColor=#fad7ac;strokeColor=#b46504;" parent="GHaV5jjTXmspHZCGRlZL-9" vertex="1">
          <mxGeometry y="11" width="120" height="60" as="geometry" />
        </mxCell>
        <mxCell id="GHaV5jjTXmspHZCGRlZL-3" value="原始图像" style="rounded=0;whiteSpace=wrap;html=1;" parent="GHaV5jjTXmspHZCGRlZL-9" vertex="1">
          <mxGeometry x="148" y="11" width="120" height="60" as="geometry" />
        </mxCell>
        <mxCell id="GHaV5jjTXmspHZCGRlZL-4" value="原始点云" style="rounded=0;whiteSpace=wrap;html=1;" parent="GHaV5jjTXmspHZCGRlZL-9" vertex="1">
          <mxGeometry x="283" y="11" width="120" height="60" as="geometry" />
        </mxCell>
        <mxCell id="GHaV5jjTXmspHZCGRlZL-5" value="配置文件" style="rounded=0;whiteSpace=wrap;html=1;" parent="GHaV5jjTXmspHZCGRlZL-9" vertex="1">
          <mxGeometry x="418" y="11" width="120" height="60" as="geometry" />
        </mxCell>
        <mxCell id="GHaV5jjTXmspHZCGRlZL-7" value="标定结果" style="rounded=0;whiteSpace=wrap;html=1;" parent="GHaV5jjTXmspHZCGRlZL-9" vertex="1">
          <mxGeometry x="558" y="11" width="120" height="60" as="geometry" />
        </mxCell>
        <mxCell id="GHaV5jjTXmspHZCGRlZL-10" value="模型层" style="rounded=1;whiteSpace=wrap;html=1;fillColor=#1ba1e2;fontColor=#ffffff;strokeColor=#006EAF;" parent="1" vertex="1">
          <mxGeometry x="80" y="337" width="120" height="60" as="geometry" />
        </mxCell>
        <mxCell id="GHaV5jjTXmspHZCGRlZL-11" value="" style="rounded=0;whiteSpace=wrap;html=1;fillColor=#dae8fc;strokeColor=#6c8ebf;" parent="1" vertex="1">
          <mxGeometry x="216" y="326.5" width="560" height="81" as="geometry" />
        </mxCell>
        <mxCell id="GHaV5jjTXmspHZCGRlZL-12" value="Pinhole模型" style="rounded=0;whiteSpace=wrap;html=1;" parent="1" vertex="1">
          <mxGeometry x="255" y="337" width="120" height="60" as="geometry" />
        </mxCell>
        <mxCell id="GHaV5jjTXmspHZCGRlZL-13" value="Kannala-Brandt模型" style="rounded=0;whiteSpace=wrap;html=1;" parent="1" vertex="1">
          <mxGeometry x="439" y="337" width="120" height="60" as="geometry" />
        </mxCell>
        <mxCell id="GHaV5jjTXmspHZCGRlZL-14" value="OmniDir模型" style="rounded=0;whiteSpace=wrap;html=1;" parent="1" vertex="1">
          <mxGeometry x="608" y="337" width="120" height="60" as="geometry" />
        </mxCell>
        <mxCell id="GHaV5jjTXmspHZCGRlZL-31" value="" style="group" parent="1" vertex="1" connectable="0">
          <mxGeometry x="75" y="148" width="700" height="163" as="geometry" />
        </mxCell>
        <mxCell id="GHaV5jjTXmspHZCGRlZL-15" value="算法层" style="rounded=1;whiteSpace=wrap;html=1;fillColor=#76608a;strokeColor=#432D57;fontColor=#ffffff;" parent="GHaV5jjTXmspHZCGRlZL-31" vertex="1">
          <mxGeometry y="14" width="120" height="136" as="geometry" />
        </mxCell>
        <mxCell id="GHaV5jjTXmspHZCGRlZL-16" value="" style="rounded=0;whiteSpace=wrap;html=1;fillColor=#e1d5e7;strokeColor=#9673a6;" parent="GHaV5jjTXmspHZCGRlZL-31" vertex="1">
          <mxGeometry x="140" width="560" height="163" as="geometry" />
        </mxCell>
        <mxCell id="GHaV5jjTXmspHZCGRlZL-17" value="图像中标定板检测" style="rounded=0;whiteSpace=wrap;html=1;" parent="GHaV5jjTXmspHZCGRlZL-31" vertex="1">
          <mxGeometry x="159" y="91" width="120" height="60" as="geometry" />
        </mxCell>
        <mxCell id="GHaV5jjTXmspHZCGRlZL-18" value="点云中标定板检测" style="rounded=0;whiteSpace=wrap;html=1;" parent="GHaV5jjTXmspHZCGRlZL-31" vertex="1">
          <mxGeometry x="295" y="91" width="120" height="60" as="geometry" />
        </mxCell>
        <mxCell id="GHaV5jjTXmspHZCGRlZL-19" value="外参估计" style="rounded=0;whiteSpace=wrap;html=1;" parent="GHaV5jjTXmspHZCGRlZL-31" vertex="1">
          <mxGeometry x="431" y="91" width="120" height="60" as="geometry" />
        </mxCell>
        <mxCell id="GHaV5jjTXmspHZCGRlZL-20" value="外参重估计" style="rounded=0;whiteSpace=wrap;html=1;" parent="GHaV5jjTXmspHZCGRlZL-31" vertex="1">
          <mxGeometry x="566" y="91" width="120" height="60" as="geometry" />
        </mxCell>
        <mxCell id="GHaV5jjTXmspHZCGRlZL-21" value="点云投影验证" style="rounded=0;whiteSpace=wrap;html=1;" parent="GHaV5jjTXmspHZCGRlZL-31" vertex="1">
          <mxGeometry x="566" y="16" width="120" height="60" as="geometry" />
        </mxCell>
        <mxCell id="GHaV5jjTXmspHZCGRlZL-26" value="标定板角点估计" style="rounded=0;whiteSpace=wrap;html=1;" parent="GHaV5jjTXmspHZCGRlZL-31" vertex="1">
          <mxGeometry x="159" y="16" width="120" height="60" as="geometry" />
        </mxCell>
        <mxCell id="GHaV5jjTXmspHZCGRlZL-27" value="图像去畸变" style="rounded=0;whiteSpace=wrap;html=1;" parent="GHaV5jjTXmspHZCGRlZL-31" vertex="1">
          <mxGeometry x="295" y="16" width="120" height="60" as="geometry" />
        </mxCell>
        <mxCell id="GHaV5jjTXmspHZCGRlZL-28" value="误差分析" style="rounded=0;whiteSpace=wrap;html=1;" parent="GHaV5jjTXmspHZCGRlZL-31" vertex="1">
          <mxGeometry x="431" y="16" width="120" height="60" as="geometry" />
        </mxCell>
        <mxCell id="GHaV5jjTXmspHZCGRlZL-32" value="" style="group" parent="1" vertex="1" connectable="0">
          <mxGeometry x="77" y="43" width="696" height="91" as="geometry" />
        </mxCell>
        <mxCell id="GHaV5jjTXmspHZCGRlZL-63" value="" style="group" parent="GHaV5jjTXmspHZCGRlZL-32" vertex="1" connectable="0">
          <mxGeometry width="696" height="91" as="geometry" />
        </mxCell>
        <mxCell id="GHaV5jjTXmspHZCGRlZL-22" value="可视化" style="rounded=1;whiteSpace=wrap;html=1;fillColor=#60a917;fontColor=#ffffff;strokeColor=#2D7600;" parent="GHaV5jjTXmspHZCGRlZL-63" vertex="1">
          <mxGeometry y="15.5" width="120" height="60" as="geometry" />
        </mxCell>
        <mxCell id="GHaV5jjTXmspHZCGRlZL-23" value="" style="rounded=0;whiteSpace=wrap;html=1;fillColor=#d5e8d4;strokeColor=#82b366;" parent="GHaV5jjTXmspHZCGRlZL-63" vertex="1">
          <mxGeometry x="136" width="560" height="91" as="geometry" />
        </mxCell>
        <mxCell id="GHaV5jjTXmspHZCGRlZL-24" value="标定板投影效果" style="rounded=0;whiteSpace=wrap;html=1;" parent="GHaV5jjTXmspHZCGRlZL-63" vertex="1">
          <mxGeometry x="330" y="15.5" width="150" height="60" as="geometry" />
        </mxCell>
        <mxCell id="GHaV5jjTXmspHZCGRlZL-25" value="全点投影效果" style="rounded=0;whiteSpace=wrap;html=1;" parent="GHaV5jjTXmspHZCGRlZL-63" vertex="1">
          <mxGeometry x="511" y="15.5" width="150" height="60" as="geometry" />
        </mxCell>
        <mxCell id="GHaV5jjTXmspHZCGRlZL-62" value="标定板识别效果" style="rounded=0;whiteSpace=wrap;html=1;" parent="GHaV5jjTXmspHZCGRlZL-63" vertex="1">
          <mxGeometry x="153" y="15.5" width="150" height="60" as="geometry" />
        </mxCell>
        <mxCell id="GHaV5jjTXmspHZCGRlZL-77" style="edgeStyle=orthogonalEdgeStyle;rounded=0;orthogonalLoop=1;jettySize=auto;html=1;exitX=0.5;exitY=1;exitDx=0;exitDy=0;" parent="1" source="GHaV5jjTXmspHZCGRlZL-67" target="GHaV5jjTXmspHZCGRlZL-68" edge="1">
          <mxGeometry relative="1" as="geometry" />
        </mxCell>
        <mxCell id="GHaV5jjTXmspHZCGRlZL-67" value="开始" style="rounded=1;whiteSpace=wrap;html=1;absoluteArcSize=1;arcSize=233;strokeWidth=2;" parent="1" vertex="1">
          <mxGeometry x="305" y="628" width="100" height="30" as="geometry" />
        </mxCell>
        <mxCell id="GHaV5jjTXmspHZCGRlZL-74" value="" style="edgeStyle=orthogonalEdgeStyle;rounded=0;orthogonalLoop=1;jettySize=auto;html=1;" parent="1" source="GHaV5jjTXmspHZCGRlZL-68" target="GHaV5jjTXmspHZCGRlZL-73" edge="1">
          <mxGeometry relative="1" as="geometry" />
        </mxCell>
        <mxCell id="GHaV5jjTXmspHZCGRlZL-68" value="加载配置文件" style="rounded=1;whiteSpace=wrap;html=1;absoluteArcSize=1;arcSize=14;strokeWidth=2;" parent="1" vertex="1">
          <mxGeometry x="280" y="684" width="150" height="50" as="geometry" />
        </mxCell>
        <mxCell id="GHaV5jjTXmspHZCGRlZL-81" value="" style="edgeStyle=orthogonalEdgeStyle;rounded=0;orthogonalLoop=1;jettySize=auto;html=1;" parent="1" source="GHaV5jjTXmspHZCGRlZL-73" target="GHaV5jjTXmspHZCGRlZL-80" edge="1">
          <mxGeometry relative="1" as="geometry" />
        </mxCell>
        <mxCell id="GHaV5jjTXmspHZCGRlZL-73" value="加载图像、点云、内参文件" style="rounded=1;whiteSpace=wrap;html=1;absoluteArcSize=1;arcSize=14;strokeWidth=2;" parent="1" vertex="1">
          <mxGeometry x="280" y="771" width="150" height="50" as="geometry" />
        </mxCell>
        <mxCell id="GHaV5jjTXmspHZCGRlZL-79" value="" style="edgeStyle=orthogonalEdgeStyle;rounded=0;orthogonalLoop=1;jettySize=auto;html=1;" parent="1" target="GHaV5jjTXmspHZCGRlZL-78" edge="1">
          <mxGeometry relative="1" as="geometry">
            <mxPoint x="355" y="900" as="sourcePoint" />
          </mxGeometry>
        </mxCell>
        <mxCell id="GHaV5jjTXmspHZCGRlZL-75" value="图像去畸变" style="rounded=1;whiteSpace=wrap;html=1;absoluteArcSize=1;arcSize=14;strokeWidth=2;" parent="1" vertex="1">
          <mxGeometry x="280" y="921" width="150" height="50" as="geometry" />
        </mxCell>
        <mxCell id="GHaV5jjTXmspHZCGRlZL-84" value="" style="edgeStyle=orthogonalEdgeStyle;rounded=0;orthogonalLoop=1;jettySize=auto;html=1;" parent="1" source="GHaV5jjTXmspHZCGRlZL-78" target="GHaV5jjTXmspHZCGRlZL-83" edge="1">
          <mxGeometry relative="1" as="geometry" />
        </mxCell>
        <mxCell id="GHaV5jjTXmspHZCGRlZL-78" value="图像标定板检测" style="rounded=1;whiteSpace=wrap;html=1;absoluteArcSize=1;arcSize=14;strokeWidth=2;" parent="1" vertex="1">
          <mxGeometry x="280" y="988" width="150" height="50" as="geometry" />
        </mxCell>
        <mxCell id="GHaV5jjTXmspHZCGRlZL-82" style="edgeStyle=orthogonalEdgeStyle;rounded=0;orthogonalLoop=1;jettySize=auto;html=1;" parent="1" source="GHaV5jjTXmspHZCGRlZL-80" target="GHaV5jjTXmspHZCGRlZL-75" edge="1">
          <mxGeometry relative="1" as="geometry" />
        </mxCell>
        <mxCell id="GHaV5jjTXmspHZCGRlZL-119" value="否" style="edgeLabel;html=1;align=center;verticalAlign=middle;resizable=0;points=[];" parent="GHaV5jjTXmspHZCGRlZL-82" vertex="1" connectable="0">
          <mxGeometry x="0.569" y="-2" relative="1" as="geometry">
            <mxPoint x="2" y="-6" as="offset" />
          </mxGeometry>
        </mxCell>
        <mxCell id="GHaV5jjTXmspHZCGRlZL-94" value="" style="edgeStyle=orthogonalEdgeStyle;rounded=0;orthogonalLoop=1;jettySize=auto;html=1;" parent="1" source="GHaV5jjTXmspHZCGRlZL-80" target="GHaV5jjTXmspHZCGRlZL-93" edge="1">
          <mxGeometry relative="1" as="geometry" />
        </mxCell>
        <mxCell id="GHaV5jjTXmspHZCGRlZL-118" value="是" style="edgeLabel;html=1;align=center;verticalAlign=middle;resizable=0;points=[];" parent="GHaV5jjTXmspHZCGRlZL-94" vertex="1" connectable="0">
          <mxGeometry x="-0.2902" relative="1" as="geometry">
            <mxPoint as="offset" />
          </mxGeometry>
        </mxCell>
        <mxCell id="GHaV5jjTXmspHZCGRlZL-80" value="是否检测完所有数据" style="rhombus;whiteSpace=wrap;html=1;rounded=1;arcSize=20;strokeWidth=2;" parent="1" vertex="1">
          <mxGeometry x="255" y="843" width="200" height="50" as="geometry" />
        </mxCell>
        <mxCell id="GHaV5jjTXmspHZCGRlZL-108" value="" style="edgeStyle=orthogonalEdgeStyle;rounded=0;orthogonalLoop=1;jettySize=auto;html=1;" parent="1" source="GHaV5jjTXmspHZCGRlZL-83" target="GHaV5jjTXmspHZCGRlZL-107" edge="1">
          <mxGeometry relative="1" as="geometry" />
        </mxCell>
        <mxCell id="ZnTsRFL5U73gd6LRawY7-1" value="否" style="edgeLabel;html=1;align=center;verticalAlign=middle;resizable=0;points=[];" parent="GHaV5jjTXmspHZCGRlZL-108" vertex="1" connectable="0">
          <mxGeometry x="-0.2195" y="9" relative="1" as="geometry">
            <mxPoint x="-5" y="-10" as="offset" />
          </mxGeometry>
        </mxCell>
        <mxCell id="GHaV5jjTXmspHZCGRlZL-116" style="edgeStyle=orthogonalEdgeStyle;rounded=0;orthogonalLoop=1;jettySize=auto;html=1;entryX=0.5;entryY=0;entryDx=0;entryDy=0;" parent="1" source="GHaV5jjTXmspHZCGRlZL-83" target="GHaV5jjTXmspHZCGRlZL-85" edge="1">
          <mxGeometry relative="1" as="geometry" />
        </mxCell>
        <mxCell id="GHaV5jjTXmspHZCGRlZL-120" value="" style="edgeStyle=orthogonalEdgeStyle;rounded=0;orthogonalLoop=1;jettySize=auto;html=1;" parent="1" source="GHaV5jjTXmspHZCGRlZL-83" target="GHaV5jjTXmspHZCGRlZL-87" edge="1">
          <mxGeometry relative="1" as="geometry" />
        </mxCell>
        <mxCell id="GHaV5jjTXmspHZCGRlZL-121" value="是" style="edgeLabel;html=1;align=center;verticalAlign=middle;resizable=0;points=[];" parent="GHaV5jjTXmspHZCGRlZL-120" vertex="1" connectable="0">
          <mxGeometry x="-0.8039" y="-2" relative="1" as="geometry">
            <mxPoint as="offset" />
          </mxGeometry>
        </mxCell>
        <mxCell id="GHaV5jjTXmspHZCGRlZL-83" value="图像内是否存在标定板" style="rhombus;whiteSpace=wrap;html=1;rounded=1;arcSize=14;strokeWidth=2;" parent="1" vertex="1">
          <mxGeometry x="255" y="1061.5" width="200" height="50" as="geometry" />
        </mxCell>
        <mxCell id="GHaV5jjTXmspHZCGRlZL-88" value="" style="edgeStyle=orthogonalEdgeStyle;rounded=0;orthogonalLoop=1;jettySize=auto;html=1;" parent="1" source="GHaV5jjTXmspHZCGRlZL-85" target="GHaV5jjTXmspHZCGRlZL-87" edge="1">
          <mxGeometry relative="1" as="geometry" />
        </mxCell>
        <mxCell id="GHaV5jjTXmspHZCGRlZL-85" value="点云标定板检测" style="whiteSpace=wrap;html=1;rounded=1;arcSize=14;strokeWidth=2;" parent="1" vertex="1">
          <mxGeometry x="280" y="1139" width="150" height="50" as="geometry" />
        </mxCell>
        <mxCell id="GHaV5jjTXmspHZCGRlZL-91" value="" style="edgeStyle=orthogonalEdgeStyle;rounded=0;orthogonalLoop=1;jettySize=auto;html=1;" parent="1" source="GHaV5jjTXmspHZCGRlZL-87" target="GHaV5jjTXmspHZCGRlZL-90" edge="1">
          <mxGeometry relative="1" as="geometry" />
        </mxCell>
        <mxCell id="GHaV5jjTXmspHZCGRlZL-123" value="是" style="edgeLabel;html=1;align=center;verticalAlign=middle;resizable=0;points=[];" parent="GHaV5jjTXmspHZCGRlZL-91" vertex="1" connectable="0">
          <mxGeometry x="0.1989" y="-1" relative="1" as="geometry">
            <mxPoint x="2" y="1" as="offset" />
          </mxGeometry>
        </mxCell>
        <mxCell id="GHaV5jjTXmspHZCGRlZL-110" style="edgeStyle=orthogonalEdgeStyle;rounded=0;orthogonalLoop=1;jettySize=auto;html=1;entryX=0.5;entryY=1;entryDx=0;entryDy=0;" parent="1" source="GHaV5jjTXmspHZCGRlZL-87" target="GHaV5jjTXmspHZCGRlZL-107" edge="1">
          <mxGeometry relative="1" as="geometry">
            <mxPoint x="91" y="1093" as="targetPoint" />
          </mxGeometry>
        </mxCell>
        <mxCell id="GHaV5jjTXmspHZCGRlZL-124" value="否" style="edgeLabel;html=1;align=center;verticalAlign=middle;resizable=0;points=[];" parent="GHaV5jjTXmspHZCGRlZL-110" vertex="1" connectable="0">
          <mxGeometry x="-0.5915" y="4" relative="1" as="geometry">
            <mxPoint as="offset" />
          </mxGeometry>
        </mxCell>
        <mxCell id="GHaV5jjTXmspHZCGRlZL-87" value="点云中是否存在标定板" style="rhombus;whiteSpace=wrap;html=1;rounded=1;arcSize=14;strokeWidth=2;" parent="1" vertex="1">
          <mxGeometry x="255" y="1204" width="200" height="50" as="geometry" />
        </mxCell>
        <mxCell id="GHaV5jjTXmspHZCGRlZL-111" style="edgeStyle=orthogonalEdgeStyle;rounded=0;orthogonalLoop=1;jettySize=auto;html=1;entryX=0.017;entryY=0.508;entryDx=0;entryDy=0;entryPerimeter=0;" parent="1" source="GHaV5jjTXmspHZCGRlZL-90" target="GHaV5jjTXmspHZCGRlZL-80" edge="1">
          <mxGeometry relative="1" as="geometry">
            <Array as="points">
              <mxPoint x="355" y="1345" />
              <mxPoint x="56" y="1345" />
              <mxPoint x="56" y="868" />
            </Array>
          </mxGeometry>
        </mxCell>
        <mxCell id="GHaV5jjTXmspHZCGRlZL-90" value="存储该帧图像和点云" style="whiteSpace=wrap;html=1;rounded=1;arcSize=14;strokeWidth=2;" parent="1" vertex="1">
          <mxGeometry x="280" y="1283" width="150" height="50" as="geometry" />
        </mxCell>
        <mxCell id="GHaV5jjTXmspHZCGRlZL-96" value="" style="edgeStyle=orthogonalEdgeStyle;rounded=0;orthogonalLoop=1;jettySize=auto;html=1;exitX=0.5;exitY=1;exitDx=0;exitDy=0;" parent="1" source="GHaV5jjTXmspHZCGRlZL-93" target="GHaV5jjTXmspHZCGRlZL-95" edge="1">
          <mxGeometry relative="1" as="geometry">
            <mxPoint x="573.8695652173915" y="893" as="sourcePoint" />
          </mxGeometry>
        </mxCell>
        <mxCell id="GHaV5jjTXmspHZCGRlZL-93" value="外参估计" style="whiteSpace=wrap;html=1;rounded=1;arcSize=20;strokeWidth=2;" parent="1" vertex="1">
          <mxGeometry x="504.91" y="843" width="150" height="50" as="geometry" />
        </mxCell>
        <mxCell id="GHaV5jjTXmspHZCGRlZL-98" value="" style="edgeStyle=orthogonalEdgeStyle;rounded=0;orthogonalLoop=1;jettySize=auto;html=1;" parent="1" source="GHaV5jjTXmspHZCGRlZL-95" target="GHaV5jjTXmspHZCGRlZL-97" edge="1">
          <mxGeometry relative="1" as="geometry" />
        </mxCell>
        <mxCell id="GHaV5jjTXmspHZCGRlZL-95" value="误差评估" style="whiteSpace=wrap;html=1;rounded=1;arcSize=20;strokeWidth=2;" parent="1" vertex="1">
          <mxGeometry x="504.91" y="921" width="150" height="50" as="geometry" />
        </mxCell>
        <mxCell id="GHaV5jjTXmspHZCGRlZL-100" value="" style="edgeStyle=orthogonalEdgeStyle;rounded=0;orthogonalLoop=1;jettySize=auto;html=1;" parent="1" source="GHaV5jjTXmspHZCGRlZL-97" target="GHaV5jjTXmspHZCGRlZL-99" edge="1">
          <mxGeometry relative="1" as="geometry" />
        </mxCell>
        <mxCell id="GHaV5jjTXmspHZCGRlZL-97" value="剔除误差大的数据组" style="whiteSpace=wrap;html=1;rounded=1;arcSize=20;strokeWidth=2;" parent="1" vertex="1">
          <mxGeometry x="504.91" y="996" width="150" height="50" as="geometry" />
        </mxCell>
        <mxCell id="GHaV5jjTXmspHZCGRlZL-102" value="" style="edgeStyle=orthogonalEdgeStyle;rounded=0;orthogonalLoop=1;jettySize=auto;html=1;" parent="1" source="GHaV5jjTXmspHZCGRlZL-99" target="GHaV5jjTXmspHZCGRlZL-101" edge="1">
          <mxGeometry relative="1" as="geometry" />
        </mxCell>
        <mxCell id="GHaV5jjTXmspHZCGRlZL-99" value="外参重估计" style="whiteSpace=wrap;html=1;rounded=1;arcSize=20;strokeWidth=2;" parent="1" vertex="1">
          <mxGeometry x="504.91" y="1075" width="150" height="50" as="geometry" />
        </mxCell>
        <mxCell id="GHaV5jjTXmspHZCGRlZL-104" value="" style="edgeStyle=orthogonalEdgeStyle;rounded=0;orthogonalLoop=1;jettySize=auto;html=1;" parent="1" source="GHaV5jjTXmspHZCGRlZL-101" target="GHaV5jjTXmspHZCGRlZL-103" edge="1">
          <mxGeometry relative="1" as="geometry" />
        </mxCell>
        <mxCell id="GHaV5jjTXmspHZCGRlZL-101" value="输出外参标定结果" style="whiteSpace=wrap;html=1;rounded=1;arcSize=20;strokeWidth=2;" parent="1" vertex="1">
          <mxGeometry x="504.91" y="1160" width="150" height="50" as="geometry" />
        </mxCell>
        <mxCell id="GHaV5jjTXmspHZCGRlZL-103" value="结束" style="whiteSpace=wrap;html=1;rounded=1;arcSize=50;strokeWidth=2;" parent="1" vertex="1">
          <mxGeometry x="529.9100000000001" y="1235" width="100" height="30" as="geometry" />
        </mxCell>
        <mxCell id="GHaV5jjTXmspHZCGRlZL-109" style="edgeStyle=orthogonalEdgeStyle;rounded=0;orthogonalLoop=1;jettySize=auto;html=1;entryX=0.021;entryY=0.516;entryDx=0;entryDy=0;entryPerimeter=0;exitX=0.5;exitY=0;exitDx=0;exitDy=0;" parent="1" source="GHaV5jjTXmspHZCGRlZL-107" edge="1">
          <mxGeometry relative="1" as="geometry">
            <mxPoint x="79" y="1098" as="sourcePoint" />
            <mxPoint x="258.20000000000005" y="868.8" as="targetPoint" />
            <Array as="points">
              <mxPoint x="141" y="869" />
            </Array>
          </mxGeometry>
        </mxCell>
        <mxCell id="GHaV5jjTXmspHZCGRlZL-107" value="剔除该组数据" style="whiteSpace=wrap;html=1;rounded=1;arcSize=14;strokeWidth=2;" parent="1" vertex="1">
          <mxGeometry x="66" y="1061.5" width="150" height="50" as="geometry" />
        </mxCell>
        <mxCell id="ZnTsRFL5U73gd6LRawY7-19" style="edgeStyle=orthogonalEdgeStyle;rounded=0;orthogonalLoop=1;jettySize=auto;html=1;entryX=0.5;entryY=0;entryDx=0;entryDy=0;" parent="1" source="ZnTsRFL5U73gd6LRawY7-5" target="ZnTsRFL5U73gd6LRawY7-6" edge="1">
          <mxGeometry relative="1" as="geometry" />
        </mxCell>
        <mxCell id="ZnTsRFL5U73gd6LRawY7-5" value="开始" style="rounded=1;whiteSpace=wrap;html=1;absoluteArcSize=1;arcSize=233;strokeWidth=2;" parent="1" vertex="1">
          <mxGeometry x="215" y="1468" width="100" height="30" as="geometry" />
        </mxCell>
        <mxCell id="ZnTsRFL5U73gd6LRawY7-20" style="edgeStyle=orthogonalEdgeStyle;rounded=0;orthogonalLoop=1;jettySize=auto;html=1;entryX=0.5;entryY=0;entryDx=0;entryDy=0;" parent="1" source="ZnTsRFL5U73gd6LRawY7-6" target="ZnTsRFL5U73gd6LRawY7-9" edge="1">
          <mxGeometry relative="1" as="geometry" />
        </mxCell>
        <mxCell id="ZnTsRFL5U73gd6LRawY7-6" value="输入去畸变图像、内参等" style="rounded=1;whiteSpace=wrap;html=1;absoluteArcSize=1;arcSize=14;strokeWidth=2;" parent="1" vertex="1">
          <mxGeometry x="190" y="1518" width="150" height="50" as="geometry" />
        </mxCell>
        <mxCell id="ZnTsRFL5U73gd6LRawY7-22" style="edgeStyle=orthogonalEdgeStyle;rounded=0;orthogonalLoop=1;jettySize=auto;html=1;entryX=0.5;entryY=0;entryDx=0;entryDy=0;" parent="1" source="ZnTsRFL5U73gd6LRawY7-9" target="ZnTsRFL5U73gd6LRawY7-10" edge="1">
          <mxGeometry relative="1" as="geometry" />
        </mxCell>
        <mxCell id="ZnTsRFL5U73gd6LRawY7-9" value="图像角点检测" style="rounded=1;whiteSpace=wrap;html=1;absoluteArcSize=1;arcSize=14;strokeWidth=2;" parent="1" vertex="1">
          <mxGeometry x="190" y="1595" width="150" height="50" as="geometry" />
        </mxCell>
        <mxCell id="ZnTsRFL5U73gd6LRawY7-10" value="角点筛选" style="rounded=1;whiteSpace=wrap;html=1;absoluteArcSize=1;arcSize=14;strokeWidth=2;" parent="1" vertex="1">
          <mxGeometry x="190" y="1668" width="150" height="50" as="geometry" />
        </mxCell>
        <mxCell id="ZnTsRFL5U73gd6LRawY7-29" style="edgeStyle=orthogonalEdgeStyle;rounded=0;orthogonalLoop=1;jettySize=auto;html=1;entryX=0.5;entryY=0;entryDx=0;entryDy=0;" parent="1" source="ZnTsRFL5U73gd6LRawY7-11" target="ZnTsRFL5U73gd6LRawY7-12" edge="1">
          <mxGeometry relative="1" as="geometry" />
        </mxCell>
        <mxCell id="ZnTsRFL5U73gd6LRawY7-11" value="生成角点世界坐标" style="rounded=1;whiteSpace=wrap;html=1;absoluteArcSize=1;arcSize=14;strokeWidth=2;" parent="1" vertex="1">
          <mxGeometry x="394.99999999999994" y="1508" width="150" height="50" as="geometry" />
        </mxCell>
        <mxCell id="ZnTsRFL5U73gd6LRawY7-30" style="edgeStyle=orthogonalEdgeStyle;rounded=0;orthogonalLoop=1;jettySize=auto;html=1;" parent="1" source="ZnTsRFL5U73gd6LRawY7-12" target="ZnTsRFL5U73gd6LRawY7-13" edge="1">
          <mxGeometry relative="1" as="geometry" />
        </mxCell>
        <mxCell id="ZnTsRFL5U73gd6LRawY7-12" value="转化3d角点" style="rounded=1;whiteSpace=wrap;html=1;absoluteArcSize=1;arcSize=14;strokeWidth=2;" parent="1" vertex="1">
          <mxGeometry x="394.99999999999994" y="1578" width="150" height="50" as="geometry" />
        </mxCell>
        <mxCell id="ZnTsRFL5U73gd6LRawY7-31" style="edgeStyle=orthogonalEdgeStyle;rounded=0;orthogonalLoop=1;jettySize=auto;html=1;" parent="1" source="ZnTsRFL5U73gd6LRawY7-13" target="ZnTsRFL5U73gd6LRawY7-24" edge="1">
          <mxGeometry relative="1" as="geometry">
            <Array as="points">
              <mxPoint x="470" y="1834" />
              <mxPoint x="380" y="1834" />
            </Array>
          </mxGeometry>
        </mxCell>
        <mxCell id="ZnTsRFL5U73gd6LRawY7-13" value="边界填充" style="rounded=1;whiteSpace=wrap;html=1;absoluteArcSize=1;arcSize=14;strokeWidth=2;" parent="1" vertex="1">
          <mxGeometry x="394.99999999999994" y="1653" width="150" height="50" as="geometry" />
        </mxCell>
        <mxCell id="ZnTsRFL5U73gd6LRawY7-25" style="edgeStyle=orthogonalEdgeStyle;rounded=0;orthogonalLoop=1;jettySize=auto;html=1;" parent="1" source="ZnTsRFL5U73gd6LRawY7-16" target="ZnTsRFL5U73gd6LRawY7-24" edge="1">
          <mxGeometry relative="1" as="geometry" />
        </mxCell>
        <mxCell id="ZnTsRFL5U73gd6LRawY7-26" value="否" style="edgeLabel;html=1;align=center;verticalAlign=middle;resizable=0;points=[];" parent="ZnTsRFL5U73gd6LRawY7-25" vertex="1" connectable="0">
          <mxGeometry x="-0.2282" y="1" relative="1" as="geometry">
            <mxPoint as="offset" />
          </mxGeometry>
        </mxCell>
        <mxCell id="ZnTsRFL5U73gd6LRawY7-27" style="edgeStyle=orthogonalEdgeStyle;rounded=0;orthogonalLoop=1;jettySize=auto;html=1;entryX=0.5;entryY=0;entryDx=0;entryDy=0;" parent="1" source="ZnTsRFL5U73gd6LRawY7-16" target="ZnTsRFL5U73gd6LRawY7-11" edge="1">
          <mxGeometry relative="1" as="geometry">
            <Array as="points">
              <mxPoint x="375" y="1779" />
              <mxPoint x="375" y="1488" />
              <mxPoint x="470" y="1488" />
            </Array>
          </mxGeometry>
        </mxCell>
        <mxCell id="ZnTsRFL5U73gd6LRawY7-28" value="是" style="edgeLabel;html=1;align=center;verticalAlign=middle;resizable=0;points=[];" parent="ZnTsRFL5U73gd6LRawY7-27" vertex="1" connectable="0">
          <mxGeometry x="-0.2798" y="-1" relative="1" as="geometry">
            <mxPoint x="-1" as="offset" />
          </mxGeometry>
        </mxCell>
        <mxCell id="ZnTsRFL5U73gd6LRawY7-16" value="是否符合当前棋盘格" style="rhombus;whiteSpace=wrap;html=1;rounded=1;arcSize=14;strokeWidth=2;" parent="1" vertex="1">
          <mxGeometry x="165" y="1754" width="200" height="50" as="geometry" />
        </mxCell>
        <mxCell id="ZnTsRFL5U73gd6LRawY7-23" style="edgeStyle=orthogonalEdgeStyle;rounded=0;orthogonalLoop=1;jettySize=auto;html=1;entryX=0.499;entryY=0.052;entryDx=0;entryDy=0;entryPerimeter=0;" parent="1" source="ZnTsRFL5U73gd6LRawY7-10" target="ZnTsRFL5U73gd6LRawY7-16" edge="1">
          <mxGeometry relative="1" as="geometry" />
        </mxCell>
        <mxCell id="ZnTsRFL5U73gd6LRawY7-24" value="结束" style="rounded=1;whiteSpace=wrap;html=1;absoluteArcSize=1;arcSize=233;strokeWidth=2;" parent="1" vertex="1">
          <mxGeometry x="330" y="1865" width="100" height="30" as="geometry" />
        </mxCell>
        <mxCell id="ZnTsRFL5U73gd6LRawY7-33" style="edgeStyle=orthogonalEdgeStyle;rounded=0;orthogonalLoop=1;jettySize=auto;html=1;entryX=0.5;entryY=0;entryDx=0;entryDy=0;" parent="1" source="ZnTsRFL5U73gd6LRawY7-34" target="ZnTsRFL5U73gd6LRawY7-36" edge="1">
          <mxGeometry relative="1" as="geometry" />
        </mxCell>
        <mxCell id="ZnTsRFL5U73gd6LRawY7-34" value="开始" style="rounded=1;whiteSpace=wrap;html=1;absoluteArcSize=1;arcSize=233;strokeWidth=2;" parent="1" vertex="1">
          <mxGeometry x="215" y="1957" width="100" height="30" as="geometry" />
        </mxCell>
        <mxCell id="ZnTsRFL5U73gd6LRawY7-35" style="edgeStyle=orthogonalEdgeStyle;rounded=0;orthogonalLoop=1;jettySize=auto;html=1;entryX=0.5;entryY=0;entryDx=0;entryDy=0;" parent="1" source="ZnTsRFL5U73gd6LRawY7-36" target="ZnTsRFL5U73gd6LRawY7-38" edge="1">
          <mxGeometry relative="1" as="geometry" />
        </mxCell>
        <mxCell id="ZnTsRFL5U73gd6LRawY7-36" value="输入点云" style="rounded=1;whiteSpace=wrap;html=1;absoluteArcSize=1;arcSize=14;strokeWidth=2;" parent="1" vertex="1">
          <mxGeometry x="190" y="2007" width="150" height="50" as="geometry" />
        </mxCell>
        <mxCell id="ZnTsRFL5U73gd6LRawY7-37" style="edgeStyle=orthogonalEdgeStyle;rounded=0;orthogonalLoop=1;jettySize=auto;html=1;entryX=0.5;entryY=0;entryDx=0;entryDy=0;" parent="1" source="ZnTsRFL5U73gd6LRawY7-38" target="ZnTsRFL5U73gd6LRawY7-39" edge="1">
          <mxGeometry relative="1" as="geometry" />
        </mxCell>
        <mxCell id="ZnTsRFL5U73gd6LRawY7-38" value="去除地面点云" style="rounded=1;whiteSpace=wrap;html=1;absoluteArcSize=1;arcSize=14;strokeWidth=2;" parent="1" vertex="1">
          <mxGeometry x="190" y="2084" width="150" height="50" as="geometry" />
        </mxCell>
        <mxCell id="ZnTsRFL5U73gd6LRawY7-56" style="edgeStyle=orthogonalEdgeStyle;rounded=0;orthogonalLoop=1;jettySize=auto;html=1;" parent="1" source="ZnTsRFL5U73gd6LRawY7-39" target="ZnTsRFL5U73gd6LRawY7-53" edge="1">
          <mxGeometry relative="1" as="geometry" />
        </mxCell>
        <mxCell id="ZnTsRFL5U73gd6LRawY7-39" value="裁剪ROI区域的点" style="rounded=1;whiteSpace=wrap;html=1;absoluteArcSize=1;arcSize=14;strokeWidth=2;" parent="1" vertex="1">
          <mxGeometry x="190" y="2157" width="150" height="50" as="geometry" />
        </mxCell>
        <mxCell id="ZnTsRFL5U73gd6LRawY7-40" style="edgeStyle=orthogonalEdgeStyle;rounded=0;orthogonalLoop=1;jettySize=auto;html=1;entryX=0.5;entryY=0;entryDx=0;entryDy=0;" parent="1" source="ZnTsRFL5U73gd6LRawY7-41" target="ZnTsRFL5U73gd6LRawY7-43" edge="1">
          <mxGeometry relative="1" as="geometry" />
        </mxCell>
        <mxCell id="ZnTsRFL5U73gd6LRawY7-41" value="去除离群点" style="rounded=1;whiteSpace=wrap;html=1;absoluteArcSize=1;arcSize=14;strokeWidth=2;" parent="1" vertex="1">
          <mxGeometry x="394.99999999999994" y="2060" width="150" height="50" as="geometry" />
        </mxCell>
        <mxCell id="ZnTsRFL5U73gd6LRawY7-43" value="边界框生成" style="rounded=1;whiteSpace=wrap;html=1;absoluteArcSize=1;arcSize=14;strokeWidth=2;" parent="1" vertex="1">
          <mxGeometry x="394.99999999999994" y="2130" width="150" height="50" as="geometry" />
        </mxCell>
        <mxCell id="ZnTsRFL5U73gd6LRawY7-44" style="edgeStyle=orthogonalEdgeStyle;rounded=0;orthogonalLoop=1;jettySize=auto;html=1;exitX=0.5;exitY=1;exitDx=0;exitDy=0;" parent="1" source="ZnTsRFL5U73gd6LRawY7-43" target="ZnTsRFL5U73gd6LRawY7-52" edge="1">
          <mxGeometry relative="1" as="geometry">
            <Array as="points">
              <mxPoint x="470" y="2386" />
              <mxPoint x="380" y="2386" />
            </Array>
            <mxPoint x="470" y="2255" as="sourcePoint" />
          </mxGeometry>
        </mxCell>
        <mxCell id="ZnTsRFL5U73gd6LRawY7-46" style="edgeStyle=orthogonalEdgeStyle;rounded=0;orthogonalLoop=1;jettySize=auto;html=1;" parent="1" source="ZnTsRFL5U73gd6LRawY7-50" target="ZnTsRFL5U73gd6LRawY7-52" edge="1">
          <mxGeometry relative="1" as="geometry" />
        </mxCell>
        <mxCell id="ZnTsRFL5U73gd6LRawY7-47" value="否" style="edgeLabel;html=1;align=center;verticalAlign=middle;resizable=0;points=[];" parent="ZnTsRFL5U73gd6LRawY7-46" vertex="1" connectable="0">
          <mxGeometry x="-0.2282" y="1" relative="1" as="geometry">
            <mxPoint as="offset" />
          </mxGeometry>
        </mxCell>
        <mxCell id="ZnTsRFL5U73gd6LRawY7-48" style="edgeStyle=orthogonalEdgeStyle;rounded=0;orthogonalLoop=1;jettySize=auto;html=1;entryX=0.5;entryY=0;entryDx=0;entryDy=0;" parent="1" source="ZnTsRFL5U73gd6LRawY7-50" target="ZnTsRFL5U73gd6LRawY7-41" edge="1">
          <mxGeometry relative="1" as="geometry">
            <Array as="points">
              <mxPoint x="375" y="2331" />
              <mxPoint x="375" y="2040" />
              <mxPoint x="470" y="2040" />
            </Array>
          </mxGeometry>
        </mxCell>
        <mxCell id="ZnTsRFL5U73gd6LRawY7-49" value="是" style="edgeLabel;html=1;align=center;verticalAlign=middle;resizable=0;points=[];" parent="ZnTsRFL5U73gd6LRawY7-48" vertex="1" connectable="0">
          <mxGeometry x="-0.2798" y="-1" relative="1" as="geometry">
            <mxPoint x="-1" as="offset" />
          </mxGeometry>
        </mxCell>
        <mxCell id="ZnTsRFL5U73gd6LRawY7-50" value="存在平面" style="rhombus;whiteSpace=wrap;html=1;rounded=1;arcSize=14;strokeWidth=2;" parent="1" vertex="1">
          <mxGeometry x="165" y="2306" width="200" height="50" as="geometry" />
        </mxCell>
        <mxCell id="ZnTsRFL5U73gd6LRawY7-52" value="结束" style="rounded=1;whiteSpace=wrap;html=1;absoluteArcSize=1;arcSize=233;strokeWidth=2;" parent="1" vertex="1">
          <mxGeometry x="330" y="2417" width="100" height="30" as="geometry" />
        </mxCell>
        <mxCell id="ZnTsRFL5U73gd6LRawY7-57" style="edgeStyle=orthogonalEdgeStyle;rounded=0;orthogonalLoop=1;jettySize=auto;html=1;" parent="1" source="ZnTsRFL5U73gd6LRawY7-53" target="ZnTsRFL5U73gd6LRawY7-50" edge="1">
          <mxGeometry relative="1" as="geometry" />
        </mxCell>
        <mxCell id="ZnTsRFL5U73gd6LRawY7-53" value="RANSAC平面检测" style="rounded=1;whiteSpace=wrap;html=1;absoluteArcSize=1;arcSize=14;strokeWidth=2;" parent="1" vertex="1">
          <mxGeometry x="190" y="2230" width="150" height="50" as="geometry" />
        </mxCell>
        <mxCell id="ZnTsRFL5U73gd6LRawY7-58" style="edgeStyle=orthogonalEdgeStyle;rounded=0;orthogonalLoop=1;jettySize=auto;html=1;entryX=0.5;entryY=0;entryDx=0;entryDy=0;" parent="1" source="ZnTsRFL5U73gd6LRawY7-59" target="ZnTsRFL5U73gd6LRawY7-61" edge="1">
          <mxGeometry relative="1" as="geometry" />
        </mxCell>
        <mxCell id="ZnTsRFL5U73gd6LRawY7-59" value="开始" style="rounded=1;whiteSpace=wrap;html=1;absoluteArcSize=1;arcSize=233;strokeWidth=2;" parent="1" vertex="1">
          <mxGeometry x="229" y="2501" width="100" height="30" as="geometry" />
        </mxCell>
        <mxCell id="ZnTsRFL5U73gd6LRawY7-61" value="输入平面点云、棋盘格角点坐标、内参、初始外参" style="rounded=1;whiteSpace=wrap;html=1;absoluteArcSize=1;arcSize=14;strokeWidth=2;" parent="1" vertex="1">
          <mxGeometry x="204" y="2564" width="150" height="50" as="geometry" />
        </mxCell>
        <mxCell id="ZnTsRFL5U73gd6LRawY7-64" style="edgeStyle=orthogonalEdgeStyle;rounded=0;orthogonalLoop=1;jettySize=auto;html=1;" parent="1" source="ZnTsRFL5U73gd6LRawY7-65" target="ZnTsRFL5U73gd6LRawY7-77" edge="1">
          <mxGeometry relative="1" as="geometry" />
        </mxCell>
        <mxCell id="ZnTsRFL5U73gd6LRawY7-65" value="将棋盘格2d角点转化为3d" style="rounded=1;whiteSpace=wrap;html=1;absoluteArcSize=1;arcSize=14;strokeWidth=2;" parent="1" vertex="1">
          <mxGeometry x="204" y="2709" width="150" height="50" as="geometry" />
        </mxCell>
        <mxCell id="ZnTsRFL5U73gd6LRawY7-94" style="edgeStyle=orthogonalEdgeStyle;rounded=0;orthogonalLoop=1;jettySize=auto;html=1;" parent="1" source="ZnTsRFL5U73gd6LRawY7-67" target="ZnTsRFL5U73gd6LRawY7-75" edge="1">
          <mxGeometry relative="1" as="geometry" />
        </mxCell>
        <mxCell id="ZnTsRFL5U73gd6LRawY7-67" value="计算误差" style="rounded=1;whiteSpace=wrap;html=1;absoluteArcSize=1;arcSize=14;strokeWidth=2;" parent="1" vertex="1">
          <mxGeometry x="204" y="3072" width="150" height="50" as="geometry" />
        </mxCell>
        <mxCell id="ZnTsRFL5U73gd6LRawY7-75" value="结束" style="rounded=1;whiteSpace=wrap;html=1;absoluteArcSize=1;arcSize=233;strokeWidth=2;" parent="1" vertex="1">
          <mxGeometry x="229" y="3155" width="100" height="30" as="geometry" />
        </mxCell>
        <mxCell id="ZnTsRFL5U73gd6LRawY7-87" style="edgeStyle=orthogonalEdgeStyle;rounded=0;orthogonalLoop=1;jettySize=auto;html=1;entryX=0.5;entryY=0;entryDx=0;entryDy=0;" parent="1" source="ZnTsRFL5U73gd6LRawY7-77" target="ZnTsRFL5U73gd6LRawY7-85" edge="1">
          <mxGeometry relative="1" as="geometry" />
        </mxCell>
        <mxCell id="ZnTsRFL5U73gd6LRawY7-77" value="检测平面点云中的角点" style="rounded=1;whiteSpace=wrap;html=1;absoluteArcSize=1;arcSize=14;strokeWidth=2;" parent="1" vertex="1">
          <mxGeometry x="204" y="2782" width="150" height="50" as="geometry" />
        </mxCell>
        <mxCell id="ZnTsRFL5U73gd6LRawY7-83" style="edgeStyle=orthogonalEdgeStyle;rounded=0;orthogonalLoop=1;jettySize=auto;html=1;" parent="1" source="ZnTsRFL5U73gd6LRawY7-78" target="ZnTsRFL5U73gd6LRawY7-65" edge="1">
          <mxGeometry relative="1" as="geometry" />
        </mxCell>
        <mxCell id="ZnTsRFL5U73gd6LRawY7-102" value="是" style="edgeLabel;html=1;align=center;verticalAlign=middle;resizable=0;points=[];" parent="ZnTsRFL5U73gd6LRawY7-83" vertex="1" connectable="0">
          <mxGeometry x="0.5298" relative="1" as="geometry">
            <mxPoint as="offset" />
          </mxGeometry>
        </mxCell>
        <mxCell id="ZnTsRFL5U73gd6LRawY7-100" style="edgeStyle=orthogonalEdgeStyle;rounded=0;orthogonalLoop=1;jettySize=auto;html=1;entryX=0.5;entryY=0;entryDx=0;entryDy=0;exitX=0.988;exitY=0.502;exitDx=0;exitDy=0;exitPerimeter=0;" parent="1" source="ZnTsRFL5U73gd6LRawY7-78" target="ZnTsRFL5U73gd6LRawY7-77" edge="1">
          <mxGeometry relative="1" as="geometry">
            <mxPoint x="254" y="2769" as="targetPoint" />
            <Array as="points">
              <mxPoint x="375" y="2655" />
              <mxPoint x="417" y="2655" />
              <mxPoint x="417" y="2769" />
              <mxPoint x="279" y="2769" />
            </Array>
          </mxGeometry>
        </mxCell>
        <mxCell id="ZnTsRFL5U73gd6LRawY7-103" value="否" style="edgeLabel;html=1;align=center;verticalAlign=middle;resizable=0;points=[];" parent="ZnTsRFL5U73gd6LRawY7-100" vertex="1" connectable="0">
          <mxGeometry x="-0.3714" relative="1" as="geometry">
            <mxPoint as="offset" />
          </mxGeometry>
        </mxCell>
        <mxCell id="ZnTsRFL5U73gd6LRawY7-78" value="棋盘格角点是否为2d" style="rhombus;whiteSpace=wrap;html=1;rounded=1;arcSize=14;strokeWidth=2;" parent="1" vertex="1">
          <mxGeometry x="179" y="2630" width="200" height="50" as="geometry" />
        </mxCell>
        <mxCell id="ZnTsRFL5U73gd6LRawY7-92" style="edgeStyle=orthogonalEdgeStyle;rounded=0;orthogonalLoop=1;jettySize=auto;html=1;entryX=0.5;entryY=0.01;entryDx=0;entryDy=0;entryPerimeter=0;" parent="1" source="ZnTsRFL5U73gd6LRawY7-79" target="ZnTsRFL5U73gd6LRawY7-89" edge="1">
          <mxGeometry relative="1" as="geometry">
            <mxPoint x="279" y="2998.4285714285716" as="targetPoint" />
          </mxGeometry>
        </mxCell>
        <mxCell id="ZnTsRFL5U73gd6LRawY7-79" value="点云角点与图像3d角点配准" style="rounded=1;whiteSpace=wrap;html=1;absoluteArcSize=1;arcSize=14;strokeWidth=2;" parent="1" vertex="1">
          <mxGeometry x="204" y="2927" width="150" height="50" as="geometry" />
        </mxCell>
        <mxCell id="ZnTsRFL5U73gd6LRawY7-82" style="edgeStyle=orthogonalEdgeStyle;rounded=0;orthogonalLoop=1;jettySize=auto;html=1;exitX=0.5;exitY=1;exitDx=0;exitDy=0;entryX=0.502;entryY=0.091;entryDx=0;entryDy=0;entryPerimeter=0;" parent="1" source="ZnTsRFL5U73gd6LRawY7-61" target="ZnTsRFL5U73gd6LRawY7-78" edge="1">
          <mxGeometry relative="1" as="geometry" />
        </mxCell>
        <mxCell id="ZnTsRFL5U73gd6LRawY7-88" style="edgeStyle=orthogonalEdgeStyle;rounded=0;orthogonalLoop=1;jettySize=auto;html=1;" parent="1" source="ZnTsRFL5U73gd6LRawY7-85" target="ZnTsRFL5U73gd6LRawY7-79" edge="1">
          <mxGeometry relative="1" as="geometry" />
        </mxCell>
        <mxCell id="ZnTsRFL5U73gd6LRawY7-85" value="初步变换点云角点到相机坐标系" style="rounded=1;whiteSpace=wrap;html=1;absoluteArcSize=1;arcSize=14;strokeWidth=2;" parent="1" vertex="1">
          <mxGeometry x="204" y="2854" width="150" height="50" as="geometry" />
        </mxCell>
        <mxCell id="ZnTsRFL5U73gd6LRawY7-93" style="edgeStyle=orthogonalEdgeStyle;rounded=0;orthogonalLoop=1;jettySize=auto;html=1;" parent="1" source="ZnTsRFL5U73gd6LRawY7-89" target="ZnTsRFL5U73gd6LRawY7-67" edge="1">
          <mxGeometry relative="1" as="geometry" />
        </mxCell>
        <mxCell id="ZnTsRFL5U73gd6LRawY7-104" value="是" style="edgeLabel;html=1;align=center;verticalAlign=middle;resizable=0;points=[];" parent="ZnTsRFL5U73gd6LRawY7-93" vertex="1" connectable="0">
          <mxGeometry x="0.5862" y="-1" relative="1" as="geometry">
            <mxPoint as="offset" />
          </mxGeometry>
        </mxCell>
        <mxCell id="ZnTsRFL5U73gd6LRawY7-98" style="edgeStyle=orthogonalEdgeStyle;rounded=0;orthogonalLoop=1;jettySize=auto;html=1;exitX=1;exitY=0.5;exitDx=0;exitDy=0;" parent="1" source="ZnTsRFL5U73gd6LRawY7-89" target="ZnTsRFL5U73gd6LRawY7-97" edge="1">
          <mxGeometry relative="1" as="geometry" />
        </mxCell>
        <mxCell id="ZnTsRFL5U73gd6LRawY7-105" value="否" style="edgeLabel;html=1;align=center;verticalAlign=middle;resizable=0;points=[];" parent="ZnTsRFL5U73gd6LRawY7-98" vertex="1" connectable="0">
          <mxGeometry x="-0.0131" y="-1" relative="1" as="geometry">
            <mxPoint as="offset" />
          </mxGeometry>
        </mxCell>
        <mxCell id="ZnTsRFL5U73gd6LRawY7-89" value="是否配准成功" style="rhombus;whiteSpace=wrap;html=1;rounded=1;arcSize=14;strokeWidth=2;" parent="1" vertex="1">
          <mxGeometry x="179" y="2996" width="200" height="50" as="geometry" />
        </mxCell>
        <mxCell id="ZnTsRFL5U73gd6LRawY7-99" style="edgeStyle=orthogonalEdgeStyle;rounded=0;orthogonalLoop=1;jettySize=auto;html=1;entryX=0.5;entryY=0;entryDx=0;entryDy=0;" parent="1" source="ZnTsRFL5U73gd6LRawY7-97" target="ZnTsRFL5U73gd6LRawY7-75" edge="1">
          <mxGeometry relative="1" as="geometry">
            <Array as="points">
              <mxPoint x="454" y="3138" />
              <mxPoint x="279" y="3138" />
            </Array>
          </mxGeometry>
        </mxCell>
        <mxCell id="ZnTsRFL5U73gd6LRawY7-97" value="丢弃数据" style="rounded=1;whiteSpace=wrap;html=1;absoluteArcSize=1;arcSize=14;strokeWidth=2;" parent="1" vertex="1">
          <mxGeometry x="379" y="3072" width="150" height="50" as="geometry" />
        </mxCell>
        <mxCell id="ZnTsRFL5U73gd6LRawY7-106" value="" style="group" parent="1" vertex="1" connectable="0">
          <mxGeometry x="68" y="3757" width="690" height="82" as="geometry" />
        </mxCell>
        <mxCell id="ZnTsRFL5U73gd6LRawY7-107" value="" style="rounded=0;whiteSpace=wrap;html=1;fillColor=#fff2cc;strokeColor=#d6b656;" parent="ZnTsRFL5U73gd6LRawY7-106" vertex="1">
          <mxGeometry x="136" width="560" height="82" as="geometry" />
        </mxCell>
        <mxCell id="ZnTsRFL5U73gd6LRawY7-108" value="数据层" style="rounded=1;whiteSpace=wrap;html=1;fillColor=#fad7ac;strokeColor=#b46504;" parent="ZnTsRFL5U73gd6LRawY7-106" vertex="1">
          <mxGeometry y="11.135802469135804" width="120" height="60.74074074074075" as="geometry" />
        </mxCell>
        <mxCell id="ZnTsRFL5U73gd6LRawY7-109" value="原始图像集" style="rounded=0;whiteSpace=wrap;html=1;" parent="ZnTsRFL5U73gd6LRawY7-106" vertex="1">
          <mxGeometry x="143" y="11.135802469135804" width="120" height="60.74074074074075" as="geometry" />
        </mxCell>
        <mxCell id="ZnTsRFL5U73gd6LRawY7-110" value="实时图像流" style="rounded=0;whiteSpace=wrap;html=1;" parent="ZnTsRFL5U73gd6LRawY7-106" vertex="1">
          <mxGeometry x="288" y="11.135802469135804" width="120" height="60.74074074074075" as="geometry" />
        </mxCell>
        <mxCell id="ZnTsRFL5U73gd6LRawY7-112" value="标定结果" style="rounded=0;whiteSpace=wrap;html=1;" parent="ZnTsRFL5U73gd6LRawY7-106" vertex="1">
          <mxGeometry x="557" y="11.135802469135804" width="120" height="60.74074074074075" as="geometry" />
        </mxCell>
        <mxCell id="I9ACfLkO2BmN4J-VlEnY-7" value="特征图像保存" style="rounded=0;whiteSpace=wrap;html=1;" vertex="1" parent="ZnTsRFL5U73gd6LRawY7-106">
          <mxGeometry x="420" y="11.135802469135797" width="120" height="60.74074074074075" as="geometry" />
        </mxCell>
        <mxCell id="ZnTsRFL5U73gd6LRawY7-118" value="" style="group" parent="1" vertex="1" connectable="0">
          <mxGeometry x="62" y="3580" width="700" height="163" as="geometry" />
        </mxCell>
        <mxCell id="ZnTsRFL5U73gd6LRawY7-119" value="算法层" style="rounded=1;whiteSpace=wrap;html=1;fillColor=#76608a;strokeColor=#432D57;fontColor=#ffffff;" parent="ZnTsRFL5U73gd6LRawY7-118" vertex="1">
          <mxGeometry y="14" width="120" height="136" as="geometry" />
        </mxCell>
        <mxCell id="ZnTsRFL5U73gd6LRawY7-120" value="" style="rounded=0;whiteSpace=wrap;html=1;fillColor=#e1d5e7;strokeColor=#9673a6;" parent="ZnTsRFL5U73gd6LRawY7-118" vertex="1">
          <mxGeometry x="140" width="560" height="163" as="geometry" />
        </mxCell>
        <mxCell id="ZnTsRFL5U73gd6LRawY7-121" value="标定板圆心检测" style="rounded=0;whiteSpace=wrap;html=1;" parent="ZnTsRFL5U73gd6LRawY7-118" vertex="1">
          <mxGeometry x="176" y="91" width="120" height="60" as="geometry" />
        </mxCell>
        <mxCell id="ZnTsRFL5U73gd6LRawY7-122" value="圆心排序" style="rounded=0;whiteSpace=wrap;html=1;" parent="ZnTsRFL5U73gd6LRawY7-118" vertex="1">
          <mxGeometry x="360" y="91" width="120" height="60" as="geometry" />
        </mxCell>
        <mxCell id="ZnTsRFL5U73gd6LRawY7-123" value="内参估计" style="rounded=0;whiteSpace=wrap;html=1;" parent="ZnTsRFL5U73gd6LRawY7-118" vertex="1">
          <mxGeometry x="545" y="91" width="119" height="60" as="geometry" />
        </mxCell>
        <mxCell id="ZnTsRFL5U73gd6LRawY7-126" value="标定板角点检测" style="rounded=0;whiteSpace=wrap;html=1;" parent="ZnTsRFL5U73gd6LRawY7-118" vertex="1">
          <mxGeometry x="176" y="16" width="120" height="60" as="geometry" />
        </mxCell>
        <mxCell id="ZnTsRFL5U73gd6LRawY7-127" value="图像去畸变" style="rounded=0;whiteSpace=wrap;html=1;" parent="ZnTsRFL5U73gd6LRawY7-118" vertex="1">
          <mxGeometry x="360" y="16" width="120" height="60" as="geometry" />
        </mxCell>
        <mxCell id="ZnTsRFL5U73gd6LRawY7-128" value="误差分析" style="rounded=0;whiteSpace=wrap;html=1;" parent="ZnTsRFL5U73gd6LRawY7-118" vertex="1">
          <mxGeometry x="544.5" y="16" width="120" height="60" as="geometry" />
        </mxCell>
        <mxCell id="ZnTsRFL5U73gd6LRawY7-129" value="" style="group" parent="1" vertex="1" connectable="0">
          <mxGeometry x="64" y="3475" width="696" height="91" as="geometry" />
        </mxCell>
        <mxCell id="ZnTsRFL5U73gd6LRawY7-130" value="" style="group" parent="ZnTsRFL5U73gd6LRawY7-129" vertex="1" connectable="0">
          <mxGeometry width="696" height="91" as="geometry" />
        </mxCell>
        <mxCell id="ZnTsRFL5U73gd6LRawY7-131" value="可视化" style="rounded=1;whiteSpace=wrap;html=1;fillColor=#60a917;fontColor=#ffffff;strokeColor=#2D7600;" parent="ZnTsRFL5U73gd6LRawY7-130" vertex="1">
          <mxGeometry y="15.5" width="120" height="60" as="geometry" />
        </mxCell>
        <mxCell id="ZnTsRFL5U73gd6LRawY7-132" value="" style="rounded=0;whiteSpace=wrap;html=1;fillColor=#d5e8d4;strokeColor=#82b366;" parent="ZnTsRFL5U73gd6LRawY7-130" vertex="1">
          <mxGeometry x="136" width="560" height="91" as="geometry" />
        </mxCell>
        <mxCell id="ZnTsRFL5U73gd6LRawY7-133" value="特征检测可视化" style="rounded=0;whiteSpace=wrap;html=1;" parent="ZnTsRFL5U73gd6LRawY7-130" vertex="1">
          <mxGeometry x="341" y="15.5" width="150" height="60" as="geometry" />
        </mxCell>
        <mxCell id="ZnTsRFL5U73gd6LRawY7-134" value="图像去畸变可视化" style="rounded=0;whiteSpace=wrap;html=1;" parent="ZnTsRFL5U73gd6LRawY7-130" vertex="1">
          <mxGeometry x="518" y="15.5" width="150" height="60" as="geometry" />
        </mxCell>
        <mxCell id="ZnTsRFL5U73gd6LRawY7-135" value="实时图像可视化" style="rounded=0;whiteSpace=wrap;html=1;" parent="ZnTsRFL5U73gd6LRawY7-130" vertex="1">
          <mxGeometry x="153" y="15.5" width="150" height="60" as="geometry" />
        </mxCell>
        <mxCell id="ZnTsRFL5U73gd6LRawY7-172" style="edgeStyle=orthogonalEdgeStyle;rounded=0;orthogonalLoop=1;jettySize=auto;html=1;entryX=0.5;entryY=0;entryDx=0;entryDy=0;" parent="1" source="ZnTsRFL5U73gd6LRawY7-138" target="ZnTsRFL5U73gd6LRawY7-165" edge="1">
          <mxGeometry relative="1" as="geometry" />
        </mxCell>
        <mxCell id="ZnTsRFL5U73gd6LRawY7-138" value="开始" style="rounded=1;whiteSpace=wrap;html=1;absoluteArcSize=1;arcSize=233;strokeWidth=2;" parent="1" vertex="1">
          <mxGeometry x="268" y="4004" width="100" height="30" as="geometry" />
        </mxCell>
        <mxCell id="ZnTsRFL5U73gd6LRawY7-174" style="edgeStyle=orthogonalEdgeStyle;rounded=0;orthogonalLoop=1;jettySize=auto;html=1;exitX=0.5;exitY=1;exitDx=0;exitDy=0;" parent="1" source="ZnTsRFL5U73gd6LRawY7-139" target="ZnTsRFL5U73gd6LRawY7-151" edge="1">
          <mxGeometry relative="1" as="geometry" />
        </mxCell>
        <mxCell id="ZnTsRFL5U73gd6LRawY7-139" value="打开相机设备" style="rounded=1;whiteSpace=wrap;html=1;absoluteArcSize=1;arcSize=14;strokeWidth=2;" parent="1" vertex="1">
          <mxGeometry x="243" y="4136" width="150" height="50" as="geometry" />
        </mxCell>
        <mxCell id="ZnTsRFL5U73gd6LRawY7-176" style="edgeStyle=orthogonalEdgeStyle;rounded=0;orthogonalLoop=1;jettySize=auto;html=1;entryX=0.5;entryY=0;entryDx=0;entryDy=0;" parent="1" source="ZnTsRFL5U73gd6LRawY7-141" target="ZnTsRFL5U73gd6LRawY7-164" edge="1">
          <mxGeometry relative="1" as="geometry" />
        </mxCell>
        <mxCell id="ZnTsRFL5U73gd6LRawY7-141" value="获取当前帧画面" style="rounded=1;whiteSpace=wrap;html=1;absoluteArcSize=1;arcSize=14;strokeWidth=2;" parent="1" vertex="1">
          <mxGeometry x="243" y="4278" width="150" height="50" as="geometry" />
        </mxCell>
        <mxCell id="ZnTsRFL5U73gd6LRawY7-144" value="结束" style="rounded=1;whiteSpace=wrap;html=1;absoluteArcSize=1;arcSize=233;strokeWidth=2;" parent="1" vertex="1">
          <mxGeometry x="467" y="4737" width="100" height="30" as="geometry" />
        </mxCell>
        <mxCell id="ZnTsRFL5U73gd6LRawY7-175" style="edgeStyle=orthogonalEdgeStyle;rounded=0;orthogonalLoop=1;jettySize=auto;html=1;entryX=0.5;entryY=0;entryDx=0;entryDy=0;" parent="1" source="ZnTsRFL5U73gd6LRawY7-151" target="ZnTsRFL5U73gd6LRawY7-141" edge="1">
          <mxGeometry relative="1" as="geometry" />
        </mxCell>
        <mxCell id="ZnTsRFL5U73gd6LRawY7-194" value="否" style="edgeLabel;html=1;align=center;verticalAlign=middle;resizable=0;points=[];" parent="ZnTsRFL5U73gd6LRawY7-175" vertex="1" connectable="0">
          <mxGeometry x="0.4701" y="-2" relative="1" as="geometry">
            <mxPoint x="-14" y="3" as="offset" />
          </mxGeometry>
        </mxCell>
        <mxCell id="ZnTsRFL5U73gd6LRawY7-189" style="edgeStyle=orthogonalEdgeStyle;rounded=0;orthogonalLoop=1;jettySize=auto;html=1;exitX=1;exitY=0.5;exitDx=0;exitDy=0;entryX=0.5;entryY=0;entryDx=0;entryDy=0;" parent="1" source="ZnTsRFL5U73gd6LRawY7-151" target="ZnTsRFL5U73gd6LRawY7-168" edge="1">
          <mxGeometry relative="1" as="geometry" />
        </mxCell>
        <mxCell id="ZnTsRFL5U73gd6LRawY7-193" value="是" style="edgeLabel;html=1;align=center;verticalAlign=middle;resizable=0;points=[];" parent="ZnTsRFL5U73gd6LRawY7-189" vertex="1" connectable="0">
          <mxGeometry x="-0.2939" y="-3" relative="1" as="geometry">
            <mxPoint as="offset" />
          </mxGeometry>
        </mxCell>
        <mxCell id="ZnTsRFL5U73gd6LRawY7-151" value="是否结束采集" style="rhombus;whiteSpace=wrap;html=1;rounded=1;arcSize=14;strokeWidth=2;" parent="1" vertex="1">
          <mxGeometry x="218" y="4207" width="200" height="50" as="geometry" />
        </mxCell>
        <mxCell id="ZnTsRFL5U73gd6LRawY7-178" style="edgeStyle=orthogonalEdgeStyle;rounded=0;orthogonalLoop=1;jettySize=auto;html=1;entryX=0.5;entryY=0;entryDx=0;entryDy=0;" parent="1" source="ZnTsRFL5U73gd6LRawY7-156" target="ZnTsRFL5U73gd6LRawY7-161" edge="1">
          <mxGeometry relative="1" as="geometry" />
        </mxCell>
        <mxCell id="ZnTsRFL5U73gd6LRawY7-156" value="特征检测" style="rounded=1;whiteSpace=wrap;html=1;absoluteArcSize=1;arcSize=14;strokeWidth=2;" parent="1" vertex="1">
          <mxGeometry x="243" y="4420" width="150" height="50" as="geometry" />
        </mxCell>
        <mxCell id="ZnTsRFL5U73gd6LRawY7-179" style="edgeStyle=orthogonalEdgeStyle;rounded=0;orthogonalLoop=1;jettySize=auto;html=1;entryX=0.5;entryY=0;entryDx=0;entryDy=0;" parent="1" source="ZnTsRFL5U73gd6LRawY7-161" target="ZnTsRFL5U73gd6LRawY7-169" edge="1">
          <mxGeometry relative="1" as="geometry" />
        </mxCell>
        <mxCell id="ZnTsRFL5U73gd6LRawY7-197" value="是" style="edgeLabel;html=1;align=center;verticalAlign=middle;resizable=0;points=[];" parent="ZnTsRFL5U73gd6LRawY7-179" vertex="1" connectable="0">
          <mxGeometry x="0.5915" y="-1" relative="1" as="geometry">
            <mxPoint as="offset" />
          </mxGeometry>
        </mxCell>
        <mxCell id="ZnTsRFL5U73gd6LRawY7-188" style="edgeStyle=orthogonalEdgeStyle;rounded=0;orthogonalLoop=1;jettySize=auto;html=1;exitX=0;exitY=0.5;exitDx=0;exitDy=0;" parent="1" source="ZnTsRFL5U73gd6LRawY7-161" edge="1">
          <mxGeometry relative="1" as="geometry">
            <mxPoint x="149.8965517241379" y="4516.137931034483" as="targetPoint" />
          </mxGeometry>
        </mxCell>
        <mxCell id="ZnTsRFL5U73gd6LRawY7-200" value="否" style="edgeLabel;html=1;align=center;verticalAlign=middle;resizable=0;points=[];" parent="ZnTsRFL5U73gd6LRawY7-188" vertex="1" connectable="0">
          <mxGeometry x="-0.0417" y="-3" relative="1" as="geometry">
            <mxPoint as="offset" />
          </mxGeometry>
        </mxCell>
        <mxCell id="ZnTsRFL5U73gd6LRawY7-161" value="是否能检测出特征" style="rhombus;whiteSpace=wrap;html=1;rounded=1;arcSize=14;strokeWidth=2;" parent="1" vertex="1">
          <mxGeometry x="218" y="4491" width="200" height="50" as="geometry" />
        </mxCell>
        <mxCell id="ZnTsRFL5U73gd6LRawY7-177" style="edgeStyle=orthogonalEdgeStyle;rounded=0;orthogonalLoop=1;jettySize=auto;html=1;exitX=0.5;exitY=1;exitDx=0;exitDy=0;entryX=0.5;entryY=0;entryDx=0;entryDy=0;" parent="1" source="ZnTsRFL5U73gd6LRawY7-164" target="ZnTsRFL5U73gd6LRawY7-156" edge="1">
          <mxGeometry relative="1" as="geometry" />
        </mxCell>
        <mxCell id="ZnTsRFL5U73gd6LRawY7-195" value="是" style="edgeLabel;html=1;align=center;verticalAlign=middle;resizable=0;points=[];" parent="ZnTsRFL5U73gd6LRawY7-177" vertex="1" connectable="0">
          <mxGeometry x="-0.0903" y="2" relative="1" as="geometry">
            <mxPoint as="offset" />
          </mxGeometry>
        </mxCell>
        <mxCell id="ZnTsRFL5U73gd6LRawY7-187" style="edgeStyle=orthogonalEdgeStyle;rounded=0;orthogonalLoop=1;jettySize=auto;html=1;exitX=0;exitY=0.5;exitDx=0;exitDy=0;" parent="1" source="ZnTsRFL5U73gd6LRawY7-164" edge="1">
          <mxGeometry relative="1" as="geometry">
            <mxPoint x="147.8275862068965" y="4374.068965517242" as="targetPoint" />
          </mxGeometry>
        </mxCell>
        <mxCell id="ZnTsRFL5U73gd6LRawY7-196" value="否" style="edgeLabel;html=1;align=center;verticalAlign=middle;resizable=0;points=[];" parent="ZnTsRFL5U73gd6LRawY7-187" vertex="1" connectable="0">
          <mxGeometry x="-0.5373" y="-3" relative="1" as="geometry">
            <mxPoint x="-17" y="3" as="offset" />
          </mxGeometry>
        </mxCell>
        <mxCell id="ZnTsRFL5U73gd6LRawY7-164" value="是否检测特征" style="rhombus;whiteSpace=wrap;html=1;rounded=1;arcSize=14;strokeWidth=2;" parent="1" vertex="1">
          <mxGeometry x="218" y="4349" width="200" height="50" as="geometry" />
        </mxCell>
        <mxCell id="ZnTsRFL5U73gd6LRawY7-173" style="edgeStyle=orthogonalEdgeStyle;rounded=0;orthogonalLoop=1;jettySize=auto;html=1;entryX=0.5;entryY=0;entryDx=0;entryDy=0;" parent="1" source="ZnTsRFL5U73gd6LRawY7-165" target="ZnTsRFL5U73gd6LRawY7-139" edge="1">
          <mxGeometry relative="1" as="geometry" />
        </mxCell>
        <mxCell id="ZnTsRFL5U73gd6LRawY7-165" value="设定标定板类型、参数等" style="rounded=1;whiteSpace=wrap;html=1;absoluteArcSize=1;arcSize=14;strokeWidth=2;" parent="1" vertex="1">
          <mxGeometry x="243" y="4065" width="150" height="50" as="geometry" />
        </mxCell>
        <mxCell id="ZnTsRFL5U73gd6LRawY7-190" style="edgeStyle=orthogonalEdgeStyle;rounded=0;orthogonalLoop=1;jettySize=auto;html=1;entryX=0.5;entryY=0;entryDx=0;entryDy=0;" parent="1" source="ZnTsRFL5U73gd6LRawY7-168" target="ZnTsRFL5U73gd6LRawY7-171" edge="1">
          <mxGeometry relative="1" as="geometry" />
        </mxCell>
        <mxCell id="ZnTsRFL5U73gd6LRawY7-168" value="内参估计" style="rounded=1;whiteSpace=wrap;html=1;absoluteArcSize=1;arcSize=14;strokeWidth=2;" parent="1" vertex="1">
          <mxGeometry x="442" y="4280" width="150" height="50" as="geometry" />
        </mxCell>
        <mxCell id="ZnTsRFL5U73gd6LRawY7-182" style="edgeStyle=orthogonalEdgeStyle;rounded=0;orthogonalLoop=1;jettySize=auto;html=1;" parent="1" source="ZnTsRFL5U73gd6LRawY7-169" target="ZnTsRFL5U73gd6LRawY7-181" edge="1">
          <mxGeometry relative="1" as="geometry" />
        </mxCell>
        <mxCell id="ZnTsRFL5U73gd6LRawY7-198" value="是" style="edgeLabel;html=1;align=center;verticalAlign=middle;resizable=0;points=[];" parent="ZnTsRFL5U73gd6LRawY7-182" vertex="1" connectable="0">
          <mxGeometry x="0.4713" relative="1" as="geometry">
            <mxPoint as="offset" />
          </mxGeometry>
        </mxCell>
        <mxCell id="ZnTsRFL5U73gd6LRawY7-186" style="edgeStyle=orthogonalEdgeStyle;rounded=0;orthogonalLoop=1;jettySize=auto;html=1;exitX=0;exitY=0.5;exitDx=0;exitDy=0;" parent="1" source="ZnTsRFL5U73gd6LRawY7-169" edge="1">
          <mxGeometry relative="1" as="geometry">
            <mxPoint x="149.20689655172418" y="4587.172413793103" as="targetPoint" />
          </mxGeometry>
        </mxCell>
        <mxCell id="ZnTsRFL5U73gd6LRawY7-199" value="否" style="edgeLabel;html=1;align=center;verticalAlign=middle;resizable=0;points=[];" parent="ZnTsRFL5U73gd6LRawY7-186" vertex="1" connectable="0">
          <mxGeometry x="-0.1316" y="-1" relative="1" as="geometry">
            <mxPoint as="offset" />
          </mxGeometry>
        </mxCell>
        <mxCell id="ZnTsRFL5U73gd6LRawY7-169" value="是否保存当前帧图像" style="rhombus;whiteSpace=wrap;html=1;rounded=1;arcSize=14;strokeWidth=2;" parent="1" vertex="1">
          <mxGeometry x="218" y="4562" width="200" height="50" as="geometry" />
        </mxCell>
        <mxCell id="ZnTsRFL5U73gd6LRawY7-192" style="edgeStyle=orthogonalEdgeStyle;rounded=0;orthogonalLoop=1;jettySize=auto;html=1;" parent="1" source="ZnTsRFL5U73gd6LRawY7-170" target="ZnTsRFL5U73gd6LRawY7-144" edge="1">
          <mxGeometry relative="1" as="geometry" />
        </mxCell>
        <mxCell id="ZnTsRFL5U73gd6LRawY7-170" value="去畸变效果展示" style="rounded=1;whiteSpace=wrap;html=1;absoluteArcSize=1;arcSize=14;strokeWidth=2;" parent="1" vertex="1">
          <mxGeometry x="442" y="4455" width="150" height="50" as="geometry" />
        </mxCell>
        <mxCell id="ZnTsRFL5U73gd6LRawY7-191" style="edgeStyle=orthogonalEdgeStyle;rounded=0;orthogonalLoop=1;jettySize=auto;html=1;" parent="1" source="ZnTsRFL5U73gd6LRawY7-171" target="ZnTsRFL5U73gd6LRawY7-170" edge="1">
          <mxGeometry relative="1" as="geometry" />
        </mxCell>
        <mxCell id="ZnTsRFL5U73gd6LRawY7-171" value="输出内参标定结果文件" style="rounded=1;whiteSpace=wrap;html=1;absoluteArcSize=1;arcSize=14;strokeWidth=2;" parent="1" vertex="1">
          <mxGeometry x="442" y="4361" width="150" height="50" as="geometry" />
        </mxCell>
        <mxCell id="ZnTsRFL5U73gd6LRawY7-183" style="edgeStyle=orthogonalEdgeStyle;rounded=0;orthogonalLoop=1;jettySize=auto;html=1;entryX=0;entryY=0.5;entryDx=0;entryDy=0;exitX=0.5;exitY=1;exitDx=0;exitDy=0;" parent="1" source="ZnTsRFL5U73gd6LRawY7-181" target="ZnTsRFL5U73gd6LRawY7-151" edge="1">
          <mxGeometry relative="1" as="geometry">
            <Array as="points">
              <mxPoint x="318" y="4706" />
              <mxPoint x="149" y="4706" />
              <mxPoint x="149" y="4232" />
            </Array>
          </mxGeometry>
        </mxCell>
        <mxCell id="ZnTsRFL5U73gd6LRawY7-181" value="保存图像" style="rounded=1;whiteSpace=wrap;html=1;absoluteArcSize=1;arcSize=14;strokeWidth=2;" parent="1" vertex="1">
          <mxGeometry x="243" y="4638" width="150" height="50" as="geometry" />
        </mxCell>
        <mxCell id="ZnTsRFL5U73gd6LRawY7-201" style="edgeStyle=orthogonalEdgeStyle;rounded=0;orthogonalLoop=1;jettySize=auto;html=1;entryX=0.5;entryY=0;entryDx=0;entryDy=0;" parent="1" source="ZnTsRFL5U73gd6LRawY7-202" target="ZnTsRFL5U73gd6LRawY7-226" edge="1">
          <mxGeometry relative="1" as="geometry" />
        </mxCell>
        <mxCell id="ZnTsRFL5U73gd6LRawY7-202" value="开始" style="rounded=1;whiteSpace=wrap;html=1;absoluteArcSize=1;arcSize=233;strokeWidth=2;" parent="1" vertex="1">
          <mxGeometry x="278.09000000000003" y="4846" width="100" height="30" as="geometry" />
        </mxCell>
        <mxCell id="ZnTsRFL5U73gd6LRawY7-203" style="edgeStyle=orthogonalEdgeStyle;rounded=0;orthogonalLoop=1;jettySize=auto;html=1;exitX=0.5;exitY=1;exitDx=0;exitDy=0;" parent="1" source="ZnTsRFL5U73gd6LRawY7-204" target="ZnTsRFL5U73gd6LRawY7-240" edge="1">
          <mxGeometry relative="1" as="geometry">
            <mxPoint x="328.0952380952381" y="5041.001309523809" as="targetPoint" />
          </mxGeometry>
        </mxCell>
        <mxCell id="ZnTsRFL5U73gd6LRawY7-204" value="轮廓检测" style="rounded=1;whiteSpace=wrap;html=1;absoluteArcSize=1;arcSize=14;strokeWidth=2;" parent="1" vertex="1">
          <mxGeometry x="253.09000000000003" y="4970" width="150" height="50" as="geometry" />
        </mxCell>
        <mxCell id="ZnTsRFL5U73gd6LRawY7-225" style="edgeStyle=orthogonalEdgeStyle;rounded=0;orthogonalLoop=1;jettySize=auto;html=1;entryX=0.5;entryY=0;entryDx=0;entryDy=0;" parent="1" source="ZnTsRFL5U73gd6LRawY7-226" target="ZnTsRFL5U73gd6LRawY7-204" edge="1">
          <mxGeometry relative="1" as="geometry" />
        </mxCell>
        <mxCell id="ZnTsRFL5U73gd6LRawY7-226" value="图像预处理" style="rounded=1;whiteSpace=wrap;html=1;absoluteArcSize=1;arcSize=14;strokeWidth=2;" parent="1" vertex="1">
          <mxGeometry x="253.09000000000003" y="4898" width="150" height="50" as="geometry" />
        </mxCell>
        <mxCell id="ZnTsRFL5U73gd6LRawY7-244" style="edgeStyle=orthogonalEdgeStyle;rounded=0;orthogonalLoop=1;jettySize=auto;html=1;" parent="1" source="ZnTsRFL5U73gd6LRawY7-240" target="ZnTsRFL5U73gd6LRawY7-241" edge="1">
          <mxGeometry relative="1" as="geometry" />
        </mxCell>
        <mxCell id="ZnTsRFL5U73gd6LRawY7-240" value="圆形轮廓筛选" style="rounded=1;whiteSpace=wrap;html=1;absoluteArcSize=1;arcSize=14;strokeWidth=2;" parent="1" vertex="1">
          <mxGeometry x="253.09000000000003" y="5037" width="150" height="50" as="geometry" />
        </mxCell>
        <mxCell id="ZnTsRFL5U73gd6LRawY7-245" style="edgeStyle=orthogonalEdgeStyle;rounded=0;orthogonalLoop=1;jettySize=auto;html=1;" parent="1" source="ZnTsRFL5U73gd6LRawY7-241" target="ZnTsRFL5U73gd6LRawY7-242" edge="1">
          <mxGeometry relative="1" as="geometry" />
        </mxCell>
        <mxCell id="ZnTsRFL5U73gd6LRawY7-241" value="计算圆心坐标" style="rounded=1;whiteSpace=wrap;html=1;absoluteArcSize=1;arcSize=14;strokeWidth=2;" parent="1" vertex="1">
          <mxGeometry x="253.09000000000003" y="5102" width="150" height="50" as="geometry" />
        </mxCell>
        <mxCell id="ZnTsRFL5U73gd6LRawY7-246" style="edgeStyle=orthogonalEdgeStyle;rounded=0;orthogonalLoop=1;jettySize=auto;html=1;exitX=0.5;exitY=1;exitDx=0;exitDy=0;" parent="1" source="ZnTsRFL5U73gd6LRawY7-242" target="ZnTsRFL5U73gd6LRawY7-243" edge="1">
          <mxGeometry relative="1" as="geometry" />
        </mxCell>
        <mxCell id="ZnTsRFL5U73gd6LRawY7-242" value="圆心坐标排序" style="rounded=1;whiteSpace=wrap;html=1;absoluteArcSize=1;arcSize=14;strokeWidth=2;" parent="1" vertex="1">
          <mxGeometry x="253.09000000000003" y="5172" width="150" height="50" as="geometry" />
        </mxCell>
        <mxCell id="ZnTsRFL5U73gd6LRawY7-243" value="结束" style="rounded=1;whiteSpace=wrap;html=1;absoluteArcSize=1;arcSize=233;strokeWidth=2;" parent="1" vertex="1">
          <mxGeometry x="278.09000000000003" y="5245" width="100" height="30" as="geometry" />
        </mxCell>
        <mxCell id="ZnTsRFL5U73gd6LRawY7-273" style="edgeStyle=orthogonalEdgeStyle;rounded=0;orthogonalLoop=1;jettySize=auto;html=1;entryX=0.5;entryY=0;entryDx=0;entryDy=0;" parent="1" source="ZnTsRFL5U73gd6LRawY7-248" target="ZnTsRFL5U73gd6LRawY7-252" edge="1">
          <mxGeometry relative="1" as="geometry" />
        </mxCell>
        <mxCell id="ZnTsRFL5U73gd6LRawY7-248" value="开始" style="rounded=1;whiteSpace=wrap;html=1;absoluteArcSize=1;arcSize=233;strokeWidth=2;" parent="1" vertex="1">
          <mxGeometry x="263" y="5400" width="100" height="30" as="geometry" />
        </mxCell>
        <mxCell id="ZnTsRFL5U73gd6LRawY7-276" style="edgeStyle=orthogonalEdgeStyle;rounded=0;orthogonalLoop=1;jettySize=auto;html=1;entryX=0.5;entryY=0;entryDx=0;entryDy=0;" parent="1" source="ZnTsRFL5U73gd6LRawY7-250" target="ZnTsRFL5U73gd6LRawY7-263" edge="1">
          <mxGeometry relative="1" as="geometry" />
        </mxCell>
        <mxCell id="ZnTsRFL5U73gd6LRawY7-250" value="计算凸包获取外围轮廓点" style="rounded=1;whiteSpace=wrap;html=1;absoluteArcSize=1;arcSize=14;strokeWidth=2;" parent="1" vertex="1">
          <mxGeometry x="238" y="5605" width="150" height="50" as="geometry" />
        </mxCell>
        <mxCell id="ZnTsRFL5U73gd6LRawY7-274" style="edgeStyle=orthogonalEdgeStyle;rounded=0;orthogonalLoop=1;jettySize=auto;html=1;" parent="1" source="ZnTsRFL5U73gd6LRawY7-252" target="ZnTsRFL5U73gd6LRawY7-271" edge="1">
          <mxGeometry relative="1" as="geometry" />
        </mxCell>
        <mxCell id="ZnTsRFL5U73gd6LRawY7-252" value="输入乱序特征点坐标数组" style="rounded=1;whiteSpace=wrap;html=1;absoluteArcSize=1;arcSize=14;strokeWidth=2;" parent="1" vertex="1">
          <mxGeometry x="238" y="5456" width="150" height="50" as="geometry" />
        </mxCell>
        <mxCell id="ZnTsRFL5U73gd6LRawY7-280" style="edgeStyle=orthogonalEdgeStyle;rounded=0;orthogonalLoop=1;jettySize=auto;html=1;" parent="1" source="ZnTsRFL5U73gd6LRawY7-261" target="ZnTsRFL5U73gd6LRawY7-262" edge="1">
          <mxGeometry relative="1" as="geometry" />
        </mxCell>
        <mxCell id="I9ACfLkO2BmN4J-VlEnY-10" value="否" style="edgeLabel;html=1;align=center;verticalAlign=middle;resizable=0;points=[];" vertex="1" connectable="0" parent="ZnTsRFL5U73gd6LRawY7-280">
          <mxGeometry x="0.3724" y="-2" relative="1" as="geometry">
            <mxPoint x="2" y="3" as="offset" />
          </mxGeometry>
        </mxCell>
        <mxCell id="ZnTsRFL5U73gd6LRawY7-283" style="edgeStyle=orthogonalEdgeStyle;rounded=0;orthogonalLoop=1;jettySize=auto;html=1;exitX=1;exitY=0.5;exitDx=0;exitDy=0;entryX=0.5;entryY=0;entryDx=0;entryDy=0;" parent="1" source="ZnTsRFL5U73gd6LRawY7-261" target="ZnTsRFL5U73gd6LRawY7-267" edge="1">
          <mxGeometry relative="1" as="geometry" />
        </mxCell>
        <mxCell id="I9ACfLkO2BmN4J-VlEnY-11" value="是" style="edgeLabel;html=1;align=center;verticalAlign=middle;resizable=0;points=[];" vertex="1" connectable="0" parent="ZnTsRFL5U73gd6LRawY7-283">
          <mxGeometry x="0.0585" y="2" relative="1" as="geometry">
            <mxPoint as="offset" />
          </mxGeometry>
        </mxCell>
        <mxCell id="ZnTsRFL5U73gd6LRawY7-261" value="是否遍历完轮廓点" style="rhombus;whiteSpace=wrap;html=1;rounded=1;arcSize=14;strokeWidth=2;" parent="1" vertex="1">
          <mxGeometry x="213" y="5754" width="200" height="50" as="geometry" />
        </mxCell>
        <mxCell id="ZnTsRFL5U73gd6LRawY7-281" style="edgeStyle=orthogonalEdgeStyle;rounded=0;orthogonalLoop=1;jettySize=auto;html=1;entryX=0.5;entryY=0;entryDx=0;entryDy=0;" parent="1" source="ZnTsRFL5U73gd6LRawY7-262" target="ZnTsRFL5U73gd6LRawY7-265" edge="1">
          <mxGeometry relative="1" as="geometry" />
        </mxCell>
        <mxCell id="ZnTsRFL5U73gd6LRawY7-262" value="计算当前点与前后相邻点的向量夹角" style="rounded=1;whiteSpace=wrap;html=1;absoluteArcSize=1;arcSize=14;strokeWidth=2;" parent="1" vertex="1">
          <mxGeometry x="238" y="5828" width="150" height="50" as="geometry" />
        </mxCell>
        <mxCell id="ZnTsRFL5U73gd6LRawY7-279" style="edgeStyle=orthogonalEdgeStyle;rounded=0;orthogonalLoop=1;jettySize=auto;html=1;entryX=0.5;entryY=0;entryDx=0;entryDy=0;" parent="1" source="ZnTsRFL5U73gd6LRawY7-263" target="ZnTsRFL5U73gd6LRawY7-261" edge="1">
          <mxGeometry relative="1" as="geometry" />
        </mxCell>
        <mxCell id="ZnTsRFL5U73gd6LRawY7-263" value="外围轮廓点逆时针排序" style="rounded=1;whiteSpace=wrap;html=1;absoluteArcSize=1;arcSize=14;strokeWidth=2;" parent="1" vertex="1">
          <mxGeometry x="238" y="5679" width="150" height="50" as="geometry" />
        </mxCell>
        <mxCell id="ZnTsRFL5U73gd6LRawY7-282" style="edgeStyle=orthogonalEdgeStyle;rounded=0;orthogonalLoop=1;jettySize=auto;html=1;entryX=0.5;entryY=0;entryDx=0;entryDy=0;" parent="1" source="ZnTsRFL5U73gd6LRawY7-265" target="ZnTsRFL5U73gd6LRawY7-266" edge="1">
          <mxGeometry relative="1" as="geometry" />
        </mxCell>
        <mxCell id="I9ACfLkO2BmN4J-VlEnY-13" value="是" style="edgeLabel;html=1;align=center;verticalAlign=middle;resizable=0;points=[];" vertex="1" connectable="0" parent="ZnTsRFL5U73gd6LRawY7-282">
          <mxGeometry x="0.3571" y="2" relative="1" as="geometry">
            <mxPoint x="-2" y="3" as="offset" />
          </mxGeometry>
        </mxCell>
        <mxCell id="ZnTsRFL5U73gd6LRawY7-288" style="edgeStyle=orthogonalEdgeStyle;rounded=0;orthogonalLoop=1;jettySize=auto;html=1;entryX=0;entryY=0.5;entryDx=0;entryDy=0;" parent="1" source="ZnTsRFL5U73gd6LRawY7-265" target="ZnTsRFL5U73gd6LRawY7-261" edge="1">
          <mxGeometry relative="1" as="geometry">
            <Array as="points">
              <mxPoint x="180" y="5928" />
              <mxPoint x="180" y="5779" />
            </Array>
          </mxGeometry>
        </mxCell>
        <mxCell id="I9ACfLkO2BmN4J-VlEnY-12" value="否" style="edgeLabel;html=1;align=center;verticalAlign=middle;resizable=0;points=[];" vertex="1" connectable="0" parent="ZnTsRFL5U73gd6LRawY7-288">
          <mxGeometry x="-0.8475" y="-2" relative="1" as="geometry">
            <mxPoint as="offset" />
          </mxGeometry>
        </mxCell>
        <mxCell id="ZnTsRFL5U73gd6LRawY7-265" value="是否大于阈值" style="rhombus;whiteSpace=wrap;html=1;rounded=1;arcSize=14;strokeWidth=2;" parent="1" vertex="1">
          <mxGeometry x="213" y="5903" width="200" height="50" as="geometry" />
        </mxCell>
        <mxCell id="ZnTsRFL5U73gd6LRawY7-289" style="edgeStyle=orthogonalEdgeStyle;rounded=0;orthogonalLoop=1;jettySize=auto;html=1;entryX=0;entryY=0.5;entryDx=0;entryDy=0;" parent="1" source="ZnTsRFL5U73gd6LRawY7-266" target="ZnTsRFL5U73gd6LRawY7-261" edge="1">
          <mxGeometry relative="1" as="geometry">
            <Array as="points">
              <mxPoint x="180" y="6002" />
              <mxPoint x="180" y="5779" />
            </Array>
          </mxGeometry>
        </mxCell>
        <mxCell id="ZnTsRFL5U73gd6LRawY7-266" value="标记当前点为拐点" style="rounded=1;whiteSpace=wrap;html=1;absoluteArcSize=1;arcSize=14;strokeWidth=2;" parent="1" vertex="1">
          <mxGeometry x="238" y="5977" width="150" height="50" as="geometry" />
        </mxCell>
        <mxCell id="ZnTsRFL5U73gd6LRawY7-284" style="edgeStyle=orthogonalEdgeStyle;rounded=0;orthogonalLoop=1;jettySize=auto;html=1;" parent="1" source="ZnTsRFL5U73gd6LRawY7-267" target="ZnTsRFL5U73gd6LRawY7-268" edge="1">
          <mxGeometry relative="1" as="geometry" />
        </mxCell>
        <mxCell id="ZnTsRFL5U73gd6LRawY7-267" value="拐点分类" style="rounded=1;whiteSpace=wrap;html=1;absoluteArcSize=1;arcSize=14;strokeWidth=2;" parent="1" vertex="1">
          <mxGeometry x="464" y="5752" width="150" height="50" as="geometry" />
        </mxCell>
        <mxCell id="ZnTsRFL5U73gd6LRawY7-291" style="edgeStyle=orthogonalEdgeStyle;rounded=0;orthogonalLoop=1;jettySize=auto;html=1;entryX=0.5;entryY=0;entryDx=0;entryDy=0;" parent="1" source="ZnTsRFL5U73gd6LRawY7-268" target="ZnTsRFL5U73gd6LRawY7-290" edge="1">
          <mxGeometry relative="1" as="geometry" />
        </mxCell>
        <mxCell id="ZnTsRFL5U73gd6LRawY7-268" value="获取首行特征点" style="rounded=1;whiteSpace=wrap;html=1;absoluteArcSize=1;arcSize=14;strokeWidth=2;" parent="1" vertex="1">
          <mxGeometry x="464" y="5820" width="150" height="50" as="geometry" />
        </mxCell>
        <mxCell id="ZnTsRFL5U73gd6LRawY7-286" style="edgeStyle=orthogonalEdgeStyle;rounded=0;orthogonalLoop=1;jettySize=auto;html=1;entryX=1;entryY=0.5;entryDx=0;entryDy=0;exitX=1;exitY=0.577;exitDx=0;exitDy=0;exitPerimeter=0;" parent="1" source="ZnTsRFL5U73gd6LRawY7-269" target="ZnTsRFL5U73gd6LRawY7-271" edge="1">
          <mxGeometry relative="1" as="geometry">
            <Array as="points">
              <mxPoint x="640" y="5985" />
              <mxPoint x="640" y="5555" />
            </Array>
          </mxGeometry>
        </mxCell>
        <mxCell id="ZnTsRFL5U73gd6LRawY7-269" value="从数组中去除首行特征点" style="rounded=1;whiteSpace=wrap;html=1;absoluteArcSize=1;arcSize=14;strokeWidth=2;" parent="1" vertex="1">
          <mxGeometry x="467" y="5956" width="150" height="50" as="geometry" />
        </mxCell>
        <mxCell id="ZnTsRFL5U73gd6LRawY7-275" style="edgeStyle=orthogonalEdgeStyle;rounded=0;orthogonalLoop=1;jettySize=auto;html=1;entryX=0.5;entryY=0;entryDx=0;entryDy=0;" parent="1" source="ZnTsRFL5U73gd6LRawY7-271" target="ZnTsRFL5U73gd6LRawY7-250" edge="1">
          <mxGeometry relative="1" as="geometry" />
        </mxCell>
        <mxCell id="I9ACfLkO2BmN4J-VlEnY-8" value="否" style="edgeLabel;html=1;align=center;verticalAlign=middle;resizable=0;points=[];" vertex="1" connectable="0" parent="ZnTsRFL5U73gd6LRawY7-275">
          <mxGeometry x="-0.8287" y="2" relative="1" as="geometry">
            <mxPoint x="-2" y="4" as="offset" />
          </mxGeometry>
        </mxCell>
        <mxCell id="ZnTsRFL5U73gd6LRawY7-271" value="是否已获取足够行特征点" style="rhombus;whiteSpace=wrap;html=1;rounded=1;arcSize=14;strokeWidth=2;" parent="1" vertex="1">
          <mxGeometry x="213" y="5530" width="200" height="50" as="geometry" />
        </mxCell>
        <mxCell id="ZnTsRFL5U73gd6LRawY7-272" value="结束" style="rounded=1;whiteSpace=wrap;html=1;absoluteArcSize=1;arcSize=233;strokeWidth=2;" parent="1" vertex="1">
          <mxGeometry x="265" y="6065" width="100" height="30" as="geometry" />
        </mxCell>
        <mxCell id="ZnTsRFL5U73gd6LRawY7-294" style="edgeStyle=orthogonalEdgeStyle;rounded=0;orthogonalLoop=1;jettySize=auto;html=1;" parent="1" source="ZnTsRFL5U73gd6LRawY7-290" edge="1">
          <mxGeometry relative="1" as="geometry">
            <mxPoint x="539" y="5953.666666666667" as="targetPoint" />
          </mxGeometry>
        </mxCell>
        <mxCell id="ZnTsRFL5U73gd6LRawY7-290" value="存储已排序特征点" style="rounded=1;whiteSpace=wrap;html=1;absoluteArcSize=1;arcSize=14;strokeWidth=2;" parent="1" vertex="1">
          <mxGeometry x="464" y="5883" width="150" height="50" as="geometry" />
        </mxCell>
        <mxCell id="ZnTsRFL5U73gd6LRawY7-297" style="edgeStyle=orthogonalEdgeStyle;rounded=0;orthogonalLoop=1;jettySize=auto;html=1;" parent="1" source="ZnTsRFL5U73gd6LRawY7-296" target="ZnTsRFL5U73gd6LRawY7-272" edge="1">
          <mxGeometry relative="1" as="geometry">
            <Array as="points">
              <mxPoint x="87" y="6080" />
            </Array>
          </mxGeometry>
        </mxCell>
        <mxCell id="ZnTsRFL5U73gd6LRawY7-298" value="" style="edgeStyle=orthogonalEdgeStyle;rounded=0;orthogonalLoop=1;jettySize=auto;html=1;exitX=0;exitY=0.5;exitDx=0;exitDy=0;" parent="1" source="ZnTsRFL5U73gd6LRawY7-271" target="ZnTsRFL5U73gd6LRawY7-296" edge="1">
          <mxGeometry relative="1" as="geometry">
            <mxPoint x="87.57142857142867" y="6049.857142857143" as="targetPoint" />
            <mxPoint x="213" y="5555" as="sourcePoint" />
          </mxGeometry>
        </mxCell>
        <mxCell id="I9ACfLkO2BmN4J-VlEnY-9" value="是" style="edgeLabel;html=1;align=center;verticalAlign=middle;resizable=0;points=[];" vertex="1" connectable="0" parent="ZnTsRFL5U73gd6LRawY7-298">
          <mxGeometry x="-0.4984" y="-1" relative="1" as="geometry">
            <mxPoint x="86" y="-14" as="offset" />
          </mxGeometry>
        </mxCell>
        <mxCell id="ZnTsRFL5U73gd6LRawY7-296" value="返回已排序特征点" style="rounded=1;whiteSpace=wrap;html=1;absoluteArcSize=1;arcSize=14;strokeWidth=2;" parent="1" vertex="1">
          <mxGeometry x="12" y="5977" width="150" height="50" as="geometry" />
        </mxCell>
        <mxCell id="ZnTsRFL5U73gd6LRawY7-299" value="特征点排序" style="text;html=1;align=center;verticalAlign=middle;resizable=0;points=[];autosize=1;strokeColor=none;fillColor=none;" parent="1" vertex="1">
          <mxGeometry x="686" y="5341" width="78" height="26" as="geometry" />
        </mxCell>
        <mxCell id="ZnTsRFL5U73gd6LRawY7-300" value="圆心阵列检测" style="text;html=1;align=center;verticalAlign=middle;resizable=0;points=[];autosize=1;strokeColor=none;fillColor=none;" parent="1" vertex="1">
          <mxGeometry x="442" y="4850" width="90" height="26" as="geometry" />
        </mxCell>
        <mxCell id="ZnTsRFL5U73gd6LRawY7-301" value="主流程" style="text;html=1;align=center;verticalAlign=middle;resizable=0;points=[];autosize=1;strokeColor=none;fillColor=none;" parent="1" vertex="1">
          <mxGeometry x="726" y="3915" width="54" height="26" as="geometry" />
        </mxCell>
      </root>
    </mxGraphModel>
  </diagram>
</mxfile>
